<svg height="922" viewBox="0 0 922 922" width="922" xmlns="http://www.w3.org/2000/svg"><circle cx="461" cy="461" fill="#fff" r="461"/><path d="m713.48 361.57s11.66-81.43 1.92-153.51c-8.54-63.27-35.86-105.42-71-112-58.27-10.93-100.68 38.55-122.1 104.63-22.38 69-22.45 142.63-22.64 142.61-25.16-2.27-69.58 8.07-69.58 8.07-14.14 26.57-47.61 200.55 7.05 251.81 25.45 23.85 82.28 36.45 140.26 40 66.61 4.05 134.71-3.86 158.46-20.44 38.86-27.12 41.94-243 41.94-243zm-17.84-3.39s-57.89-5.78-89.31-8.27-85.17-5-85.17-5-12.41-95.09 37.21-189.36c14.61-27.77 40.06-54.32 71.12-48 36.38 7.45 63.39 42.06 70.33 102 7.98 69.04-4.18 148.63-4.18 148.63z" fill="#e9ac4f"/><circle cx="419.71" cy="390.87" fill="#f8b2b2" r="20.4"/><path d="m738.64 377.2c10.75-90.13-9.17-269-102.28-285.15a72.11 72.11 0 0 0 -26.42.36c-121.86 37.59-118.12 221.28-137.57 275.7-3.72 10.42-42.29-16.74-42.29-16.74-14.14 26.57-47.61 200.55 7.05 251.81 25.45 23.85 82.28 36.45 140.26 40 66.61 4.05 134.71-3.86 158.46-20.44 38.86-27.12 41.94-243 41.94-243s-40.35 7.54-39.15-2.54zm-21.5 4.14c-12.3 13.18-55.37 14.68-125 12.44-27.15 0-61-.87-81.72-8.31-27.42-9.88 14.88-261.41 98.82-281.12a53.13 53.13 0 0 1 16.24-1.35c113.26 8.63 108.12 260.72 91.66 278.34z" fill="#fffaba"/><g fill="#f8b2b2"><circle cx="413.83" cy="498.69" r="20.4"/><circle cx="508.1" cy="631.83" r="20.4"/><circle cx="737.39" cy="440.69" r="20.4"/><circle cx="758.89" cy="546.54" r="20.4"/><circle cx="626.58" cy="525.04" r="20.4"/><circle cx="546.37" cy="435.73" r="20.4"/></g><path d="m120.6 715.62c-32.81-25.53 26.76-68.25 54.87-73.61s346.6-1.33 386.74 8 76.28 36.14 62.9 57.55c-10.64 17-54.87 25.42-80.29 25.42s-400.13 1.37-424.22-17.36z" fill="#fffaba"/><path d="m124.61 664.76c-14.72-12 26.77-68.25 54.87-73.6s319.84-1.34 360 8 95 62.9 69.59 72.27c-18.83 6.93-34.79 10.7-60.22 10.7s-400.62 1.96-424.24-17.37z" fill="#f8b2b2"/><path d="m225 617.93c-32.81-25.53-17.4-73.61 10.71-79 8.12-1.55 30.8-2.65 59.91-3.2a103 103 0 0 1 13.58.72c16 1.82 32.22 6.35 51 6.5 16.89.12 36.68-5.08 53.74-6.26 2.94-.2 5.8-.28 8.56-.2 37.74 1.18 70 3.28 83.57 6.46 40.15 9.36 36.13 8 34.79 36.13-.95 20-29.44 34.79-54.86 34.79s-236.93 22.79-261 4.06z" fill="#93d19d"/><path d="m151.38 617.93c-17.18-13.36 9.37-32.91 32.4-49.26 21-14.89 31.82-29.82 45.22-32.38 8.12-1.54 65.26-.52 65.26-.52s55.18 35.32 68.3 35.8c12.32.45 58.54-35 58.54-35s75 1.83 88.92 2.44c30.78 1.34 40.15 28.1 77.62 72.26 13 15.31-20.07 24.09-45.5 24.09s-366.67 1.3-390.76-17.43z" fill="#c3fccf"/><path d="m726.4 723.79c-15.88 1.91-40.13-.9-40.13-.9s-1-34.7-2.37-50.13c-1.91-22.11-9.63-32.63-9.63-32.63s88.62 19.52 90.07 49c1.04 21.11-13.86 31.78-37.94 34.66zm-30.24-83.17c-16.42-6.86-104-22.35-131.31-20.11s-96.47 40.67-116 51.33-60 45.65-60.77 69.65c-1.41 44.57 75.73 24.71 75.73 24.71s62.55 10.17 103.91 8.33 117-46.78 117-46.78 76.5 9.53 83.86-28.77-56.01-51.49-72.42-58.36zm-244.53 80.26c1.61 10.88 8.95 40 8.95 40s-19.74 5.56-36.95 3.91c-14.33-1.38-26.15-8-29-12.12-8.5-12.32 8.26-39.45 22.46-51s33.47-24.28 33.47-24.28-1.66 25.11 1.07 43.49z" fill="#c4e8ff"/><path d="m485.52 683.06a3.21 3.21 0 0 1 -1.53-6c16.32-9.16 49.62-26.3 75.28-29.38 25.39-3 65.79.69 86.55 3a3.21 3.21 0 0 1 .72 6.21c-18.92 6.79-62.69 6.6-80.77 10.25-19.21 3.91-58.36 16.24-80.25 15.92z" fill="#84bfd8"/><path d="m488.56 740.34a2.32 2.32 0 0 1 -.08-4.48c16.95-5 59.42-3.13 85.3-6.24 25.44-3 65.2-18.3 83.3-19a2.32 2.32 0 0 1 1.27 4.32c-15.73 9.25-52.61 29.44-82.24 34.18-29.99 4.78-70.68-4.39-87.55-8.78z" fill="#84bfd8"/></svg>
