<svg id="Layer_1" data-name="Layer 1" xmlns="http://www.w3.org/2000/svg" width="922" height="922" viewBox="0 0 922 922"><defs><style>.cls-1{fill:none;}.cls-2{fill:#d38888;}.cls-3{fill:#e9ac4f;}.cls-4{fill:#3db2a4;}.cls-5{fill:#c4e8ff;}.cls-6{fill:#fffaba;}.cls-7{fill:#f8b2b2;}.cls-8{fill:#c3fccf;}</style></defs><title>produktkategori_colorblock</title><circle class="cls-1" cx="461" cy="461" r="461"/><path class="cls-2" d="M512.18,246.12s9.55-58.69,22.84-100.46c6.72-21.11,14.93-48.82,33.89-67.79,12-12,24.35-9.49,24.1-15.79a6.57,6.57,0,0,0-4-5.78L578.88,52S547,71.89,529,117.74C511.57,162.38,492.82,237,492.82,237Z"/><path class="cls-3" d="M401.44,215.44l-14.39-3.35s-.12-6.3-1.14-16.21c-1.7-16.71-5.92-43.7-16.37-68.17-6.58-15.43-24.82-41-35.63-56.14.08-4.33.28-7.72.54-10.33a37.94,37.94,0,0,1,1.2-7.3s37,42.63,45.85,65.8c13.16,34.57,18.19,59.61,19.52,81.88C401.32,206.33,401.44,210.91,401.44,215.44Z"/><path class="cls-4" d="M604.8,388.89l.8,2.43q-4,.54-8.4,1.08c-1,.14-2,.26-3,.38-2.91.38-5.92.74-9,1.12-5.44.65-11.16,1.31-17.08,2l-7.09.77-7.25.74c-2.45.26-4.9.5-7.4.74-5,.48-10,.94-15.09,1.38l-2.15.18c-3.19.26-6.4.52-9.61.75-1.18.1-2.37.18-3.57.26-1.46.12-2.91.22-4.37.3-.55.06-1.11.08-1.69.12l-3.53.24c-4.47.26-8.93.52-13.34.72,1.74-53.53-.9-142.45-2.61-190.76,3.19-.74,6.47-1.52,9.8-2.31h0c6.6-1.58,13.38-3.27,19.94-4.95,16.23-4.12,31.1-8.19,38.46-10.52a12,12,0,0,0,8-8.42s8.31-17.52,12.3-61.39c1.58-17.36,1.34-38.63.86-53.49-.38-10.84-.86-18.28-.86-18.28L589,56.3A6.35,6.35,0,0,1,591,57.57a6.59,6.59,0,0,1,2,4.51v.2a.49.49,0,0,0,0,.12c.52,12.2,1.82,33.64.73,60.27a585.92,585.92,0,0,1-7.8,71.61,12.08,12.08,0,0,0,2,9.51l28.77,39.56s-8.89,72.71-12,95.7C600.81,369,604.8,388.89,604.8,388.89Z"/><path class="cls-5" d="M636.7,851.44s-65.79,23.92-187.41,17.94c-135.65-6.68-187.41-41.87-187.41-41.87s14.27-322.82,27.91-372.83c3.47-12.74,6.94-23.78,10.13-33.07,7-20.34,12.54-32.12,13.62-34.33l2.33.46,1,.18,2.24.43,1.79.33c3,.56,6.64,1.21,10.88,1.94l1.83.31c4.4.74,9.37,1.55,14.82,2.38l3.2.48,1.89.28c7.14,1,15,2.12,23.39,3.13,25.52,3.08,55.94,5.65,86.37,5.65q7.8,0,16-.24c2-.06,4.08-.12,6.14-.2,1.27,0,2.53-.1,3.8-.16s2.56-.1,3.83-.18c4.41-.2,8.87-.46,13.34-.72l3.53-.24c.58,0,1.14-.06,1.69-.12,1.46-.08,2.91-.18,4.37-.3,1.2-.08,2.39-.16,3.57-.26,3.21-.23,6.42-.49,9.61-.75l2.15-.18c5.09-.44,10.13-.9,15.09-1.38,2.5-.24,5-.48,7.4-.74s4.86-.48,7.25-.74l7.09-.77c5.92-.66,11.64-1.32,17.08-2,3.11-.38,6.12-.74,9-1.12,1-.12,2-.24,3-.38q4.39-.54,8.4-1.08c2.89,9.17,13,42.51,15.15,69.35C624.74,510.51,636.7,851.44,636.7,851.44Z"/><path class="cls-6" d="M493,402.07l-3.83.18c-1.27.06-2.53.12-3.8.16-2.06.08-4.11.14-6.14.2q-8.2.24-16,.24c-30.43,0-60.85-2.57-86.37-5.65-8.4-1-16.25-2.09-23.39-3.13C353,333,330.86,239.94,320.71,200.4l3.23-4.28,2-2.69a12,12,0,0,0,3.25-9.25s-3.55-34.54-6.24-63.55c-2.3-24.74-1.3-50.74.69-58.73a3.21,3.21,0,0,1,1.88-2.59l10.09-5.37a37.94,37.94,0,0,0-1.2,7.3c-.26,2.61-.46,6-.54,10.33a323.76,323.76,0,0,0,1.74,36.21c1.41,14.81,6.5,49.38,12,65.79,2,6,10.33,11,14.19,12.58,5.49,2.27,14.12,5.82,24.11,9.73,1,9.91,1.14,16.21,1.14,16.21l14.39,3.35c0-4.53-.12-9.11-.42-13.82,23.13,8.57,48.43,16.79,58.24,15.81,5.78-.58,17.54-3,31.16-6.12C492.13,259.62,494.77,348.54,493,402.07Z"/><path class="cls-6" d="M320.71,200.4C330.86,239.94,353,333,353.49,394.07l-1.89-.28-3.2-.48c-5.45-.83-10.42-1.64-14.82-2.38l-1.83-.31c-4.24-.73-7.89-1.38-10.88-1.94l-1.79-.33-2.24-.43-1-.18-2.33-.46.18-.38s4-19.94,0-53.83c-2.32-19.64-18-99.69-18-99.69Z"/><path class="cls-6" d="M401.44,215.44l-14.39-3.35s-.12-6.3-1.14-16.21c4.78,1.85,9.89,3.81,15.11,5.74C401.32,206.33,401.44,210.91,401.44,215.44Z"/><path class="cls-7" d="M604.8,388.89l.8,2.43q-4,.54-8.4,1.08c-1,.14-2,.26-3,.38-2.91.38-5.92.74-9,1.12-5.44.65-11.16,1.31-17.08,2l-7.09.77-7.25.74c-2.45.26-4.9.5-7.4.74-5,.48-10,.94-15.09,1.38l-2.15.18c-3.19.26-6.4.52-9.61.75-1.18.1-2.37.18-3.57.26-1.46.12-2.91.22-4.37.3-.55.06-1.11.08-1.69.12l-3.53.24c-4.47.26-8.93.52-13.34.72,1.74-53.53-.9-142.45-2.61-190.76,3.19-.74,6.47-1.52,9.8-2.31h0c6.6-1.58,13.38-3.27,19.94-4.95,16.23-4.12,31.1-8.19,38.46-10.52a12,12,0,0,0,8-8.42s8.31-17.52,12.3-61.39c1.58-17.36,1.34-38.63.86-53.49-.38-10.84-.86-18.28-.86-18.28L589,56.3A6.35,6.35,0,0,1,591,57.57a6.59,6.59,0,0,1,2,4.51v.2a.49.49,0,0,0,0,.12c.52,12.2,1.82,33.64.73,60.27a585.92,585.92,0,0,1-7.8,71.61,12.08,12.08,0,0,0,2,9.51l28.77,39.56s-8.89,72.71-12,95.7C600.81,369,604.8,388.89,604.8,388.89Z"/><path class="cls-8" d="M353.49,394.07l-1.89-.28-3.2-.48c-5.45-.83-10.42-1.64-14.82-2.38l-1.83-.31c-4.24-.73-7.89-1.38-10.88-1.94l-1.79-.33-2.24-.43-1-.18-2.33-.46.18-.38s4-19.94,0-53.83c-2.32-19.64-18-99.69-18-99.69l24.94-33C330.86,239.94,353,333,353.49,394.07Z"/></svg>
