<svg id="Layer_1" data-name="Layer 1" xmlns="http://www.w3.org/2000/svg" width="922" height="922" viewBox="0 0 922 922"><defs><style>.cls-1{fill:none;}.cls-2{fill:#d38888;}.cls-3{fill:#e9ac4f;}.cls-4{fill:#3db2a4;}.cls-5{fill:#c4e8ff;}.cls-6{fill:#fffaba;}.cls-7{fill:#f8b2b2;}.cls-8{fill:#c3fccf;}</style></defs><title>produktkategori_colorblock2</title><path class="cls-1" d="M922,461c0,170.9-93,320.08-231.14,399.69A461.47,461.47,0,0,1,217,852.18C86.67,770.72,0,626,0,461,0,206.4,206.4,0,461,0S922,206.4,922,461Z"/><path class="cls-2" d="M536,393s12.88-79.12,30.8-135.44c9-28.46,20.12-65.83,45.69-91.4,16.13-16.13,32.82-12.79,32.49-21.29a8.84,8.84,0,0,0-5.36-7.79L626,131.25S583,158.14,558.76,220c-23.55,60.18-48.83,160.72-48.83,160.72Z"/><path class="cls-3" d="M386.73,351.68l-19.41-4.51s-.16-8.5-1.53-21.86c-2.3-22.53-8-58.92-22.07-91.91-8.88-20.8-33.47-55.29-48-75.69.1-5.84.37-10.41.72-13.93.71-7.12,1.62-9.84,1.62-9.84s49.92,57.47,61.82,88.71c17.74,46.61,24.53,80.37,26.32,110.4C386.56,339.4,386.73,345.58,386.73,351.68Z"/><path class="cls-4" d="M660.91,585.54l1.08,3.28q-5.4.72-11.33,1.45c-1.3.19-2.63.35-4,.52-3.92.51-8,1-12.18,1.51-7.33.87-15,1.76-23,2.65l-9.56,1-9.78,1c-3.3.35-6.61.67-10,1-6.68.64-13.48,1.26-20.34,1.86l-2.9.24c-4.3.35-8.63.7-13,1-1.59.13-3.19.24-4.81.35-2,.16-3.92.3-5.89.4-.74.09-1.5.11-2.28.17l-4.76.32c-6,.35-12,.7-18,1,2.35-72.17-1.21-192.06-3.52-257.2,4.31-1,8.73-2,13.22-3.11h0c8.9-2.13,18-4.41,26.89-6.67,21.88-5.56,41.93-11.05,51.85-14.19a16.12,16.12,0,0,0,10.72-11.35S620.58,287.17,626,228c2.13-23.41,1.81-52.08,1.16-72.12-.51-14.61-1.16-24.65-1.16-24.65l13.69,5.87a8.7,8.7,0,0,1,2.6,1.71,8.91,8.91,0,0,1,2.75,6.08v.27a.81.81,0,0,0,0,.16c.7,16.45,2.46,45.36,1,81.26-2,49.92-10.52,96.55-10.52,96.55A16.26,16.26,0,0,0,638.25,336L677,389.31s-12,98-16.13,129C655.53,558.66,660.91,585.54,660.91,585.54Z"/><path class="cls-5" d="M690.86,814.69C623.19,853.69,544.7,882,461,882c-89.62,0-173.26-31.57-244-75.82,5.9-82,12.62-107.71,19.23-131.94,4.68-17.17,9.36-32.06,13.66-44.58,9.41-27.43,16.91-43.31,18.36-46.29l3.14.62,1.31.24,3,.58,2.42.45c4,.75,8.95,1.63,14.66,2.61.81.14,1.64.29,2.47.42,5.93,1,12.64,2.09,20,3.21l4.32.65,2.55.37c9.62,1.41,20.21,2.86,31.53,4.22,34.41,4.16,75.42,7.62,116.45,7.62q10.51,0,21.59-.32c2.73-.08,5.5-.16,8.28-.27,1.71,0,3.41-.14,5.12-.22l1.3-.06c1.29,0,2.58-.1,3.86-.18,5.95-.27,12-.62,18-1L533,602c.78-.06,1.54-.08,2.28-.17,2-.1,3.92-.24,5.89-.4,1.62-.11,3.22-.22,4.81-.35,4.33-.31,8.66-.66,13-1l2.9-.24c6.86-.6,13.66-1.22,20.34-1.86,3.37-.33,6.68-.65,10-1s6.55-.65,9.78-1l9.56-1c8-.89,15.69-1.78,23-2.65,4.2-.52,8.26-1,12.18-1.51,1.37-.17,2.7-.33,4-.52q5.93-.72,11.33-1.45c3.9,12.36,17.53,57.31,20.42,93.5C684.29,705.85,687.5,731.5,690.86,814.69Z"/><path class="cls-6" d="M510.21,603.31l-5.16.24c-1.71.08-3.41.17-5.12.22-2.78.11-5.55.19-8.28.27q-11.07.32-21.59.32c-41,0-82-3.46-116.45-7.62-11.32-1.36-21.91-2.81-31.53-4.22-.65-82.37-30.52-207.8-44.2-261.12l4.35-5.77L285,322a16.3,16.3,0,0,0,4.38-12.47S284.58,263,281,223.85c-3.1-33.35-1.75-68.41.93-79.18.38-1.54,1-3,2.54-3.49l13.6-7.24s-.91,2.72-1.62,9.84c-.35,3.52-.62,8.09-.72,13.93-.22,11.15.27,27,2.34,48.82,1.9,20,8.77,66.58,16.13,88.7,2.68,8.06,13.93,14.8,19.13,17,7.4,3.06,19,7.85,32.51,13.12,1.37,13.36,1.53,21.86,1.53,21.86l19.41,4.51c0-6.1-.17-12.28-.57-18.63,31.18,11.55,65.3,22.64,78.52,21.32,7.8-.79,23.65-4,42-8.26C509,411.25,512.56,531.14,510.21,603.31Z"/><path class="cls-6" d="M277.88,331.4c13.68,53.32,43.55,178.75,44.2,261.12l-2.55-.37-4.32-.65c-7.34-1.12-14-2.21-20-3.21-.83-.13-1.66-.28-2.47-.42-5.71-1-10.63-1.86-14.66-2.61l-2.42-.45-3-.58-1.31-.24-3.14-.62c.16-.35.25-.51.25-.51s5.36-26.89,0-72.58c-3.13-26.48-24.21-134.41-24.21-134.41Z"/><path class="cls-6" d="M386.73,351.68l-19.41-4.51s-.16-8.5-1.53-21.86c6.44,2.5,13.33,5.14,20.37,7.74C386.56,339.4,386.73,345.58,386.73,351.68Z"/><path class="cls-7" d="M660.91,585.54l1.08,3.28q-5.4.72-11.33,1.45c-1.3.19-2.63.35-4,.52-3.92.51-8,1-12.18,1.51-7.33.87-15,1.76-23,2.65l-9.56,1-9.78,1c-3.3.35-6.61.67-10,1-6.68.64-13.48,1.26-20.34,1.86l-2.9.24c-4.3.35-8.63.7-13,1-1.59.13-3.19.24-4.81.35-2,.16-3.92.3-5.89.4-.74.09-1.5.11-2.28.17l-4.76.32c-6,.35-12,.7-18,1,2.35-72.17-1.21-192.06-3.52-257.2,4.31-1,8.73-2,13.22-3.11h0c8.9-2.13,18-4.41,26.89-6.67,21.88-5.56,41.93-11.05,51.85-14.19a16.12,16.12,0,0,0,10.72-11.35S620.58,287.17,626,228c2.13-23.41,1.81-52.08,1.16-72.12-.51-14.61-1.16-24.65-1.16-24.65l13.69,5.87a8.7,8.7,0,0,1,2.6,1.71,8.91,8.91,0,0,1,2.75,6.08v.27a.81.81,0,0,0,0,.16c.7,16.45,2.46,45.36,1,81.26-2,49.92-10.52,96.55-10.52,96.55A16.26,16.26,0,0,0,638.25,336L677,389.31s-12,98-16.13,129C655.53,558.66,660.91,585.54,660.91,585.54Z"/><path class="cls-8" d="M322.08,592.52l-2.55-.37-4.32-.65c-7.34-1.12-14-2.21-20-3.21-.83-.13-1.66-.28-2.47-.42-5.71-1-10.63-1.86-14.66-2.61l-2.42-.45-3-.58-1.31-.24-3.14-.62c.16-.35.25-.51.25-.51s5.36-26.89,0-72.58c-3.13-26.48-24.21-134.41-24.21-134.41l33.63-44.47C291.56,384.72,321.43,510.15,322.08,592.52Z"/></svg>
