<svg xmlns="http://www.w3.org/2000/svg" id="Layer_1" data-name="Layer 1" width="262" height="262" viewBox="0 0 262 262">
    <defs>
        <style>
            .cls-1 {
                fill: #cdebbf;
            }

            .cls-2 {
                fill: #c4e8ff;
            }

            .cls-3 {
                fill: #f8b2b2;
            }

            .cls-4 {
                fill: #fff;
            }

        </style>
    </defs>
    <title>hauli-logo</title>
    <path class="cls-1" d="M59,246.31V262H0V127H43v78.82q.07,21.08-3.45,25.23t-22.42,5.39l-3,.16v9.71Z" />
    <path class="cls-2" d="M262,0V262H59V246.31h45.79v-9.68l-3-.16q-19.07-1.25-22.5-5.39t-3.44-25.23v-73l55.15,0h54.85v73q0,21.24-3.44,25.31t-22.65,5.31l-2.82.16v9.68H247.6V236.6l-3-.16q-19.07-1.24-22.5-5.39t-3.44-25.23V55.5q0-21.16,3.41-25.21T244.57,25l3-.31V15H205V0Z" />
    <path class="cls-3" d="M156.94,15v9.69l2.82.31q19.06,1.28,22.58,5.32t3.51,25.18v63.91h-110V55.5q0-21.16,3.38-25.21T101.73,25l3-.31V15H14.1v9.69l3,.31Q36,26.28,39.48,30.32T43,55.5V127H0V0H205V15Z" />
    <path class="cls-4" d="M247.6,236.6v9.68H156.94V236.6l2.82-.16q19.22-1.24,22.65-5.31t3.44-25.31v-73H131l-55.15,0v73q0,21.09,3.44,25.23t22.5,5.39l3,.16v9.68H14.13V236.6l3-.16q18.9-1.24,22.42-5.39T43,205.82V55.5q0-21.14-3.52-25.18T17.1,25l-3-.31V15h90.63v9.69l-3,.31q-19.07,1.24-22.5,5.29T75.85,55.5v63.91h110V55.5q0-21.14-3.51-25.18T159.76,25l-2.82-.31V15h90.63v9.69l-3,.31q-19.06,1.24-22.5,5.29T218.66,55.5V205.82q0,21.09,3.44,25.23t22.5,5.39Z" />
</svg>
