<svg id="Layer_1" data-name="Layer 1" xmlns="http://www.w3.org/2000/svg" width="922" height="922" viewBox="0 0 922 922"><defs><style>.cls-1{fill:none;}.cls-2{fill:#7dacc6;}.cls-3{fill:#c4e8ff;}.cls-4{fill:#fffaba;}.cls-5{opacity:0.18;}</style></defs><title>produktkategori_kjole</title><path class="cls-1" d="M922,461c0,170.9-93,320.08-231.14,399.69A461.47,461.47,0,0,1,217,852.18C86.67,770.72,0,626,0,461,0,206.4,206.4,0,461,0S922,206.4,922,461Z"/><path class="cls-2" d="M518.18,244.12S533.73,185.43,547,143.66c6.72-21.11,9-33.66,27.89-54.79C586.2,76.26,609.26,76.38,609,70.08a6.57,6.57,0,0,0-4-5.78L584.88,50S553,69.89,535,115.74C517.57,160.38,498.82,235,498.82,235Z"/><path class="cls-2" d="M416,199.62c-5.22-1.93-19.33-3.89-24.11-5.74-1.7-16.71-9.92-43.7-20.37-68.17-6.58-15.43-30.82-41-41.63-56.14.08-4.33,10.28-7.72,10.54-10.33a37.94,37.94,0,0,1,1.2-7.3s42.1,43,51.85,65.8C409,154,414.69,177.35,416,199.62Z"/><path class="cls-3" d="M675.6,802.55a353.09,353.09,0,0,1-54,29.09,380.2,380.2,0,0,1-41.1,15,408.52,408.52,0,0,1-99.41,16.84q-8.88.42-18.1.48-12.79.07-25.06-.64a384.55,384.55,0,0,1-93.43-17.21l-1.95-.62a393.1,393.1,0,0,1-39.26-15c-9.29-4.12-18-8.41-26.12-12.75a390.49,390.49,0,0,1-43.43-26.94c7.18-42.22,19.92-116.46,32.23-185.25,3.94-22,7.84-43.48,11.49-63.15,7.85-42.17,14.6-76.13,18.32-89.78,3.47-12.74,6.94-23.78,10.13-33.07,7-20.34,12.54-32.12,13.62-34.33l.18-.38s4-19.94,0-53.83c-2.32-19.64-18-99.69-18-99.69l24.94-33,3.23-4.28,2-2.69a12,12,0,0,0,3.25-9.25S320.68,147.64,318,118.63c-2.3-24.74-.3-44.74,1.69-52.73a3.21,3.21,0,0,1,1.88-2.59l20.09-11.37a37.94,37.94,0,0,0-1.2,7.3c-.26,2.61-.46,6-.54,10.33a323.76,323.76,0,0,0,1.74,36.21c1.41,14.81,6.5,49.38,12,65.79,2,6,10.33,11,14.19,12.58,2.75,1.13,50.11,13.56,97.71,15.41s95.44-6.87,99.12-8a12,12,0,0,0,8-8.42s8.31-17.52,12.3-61.39c1.58-17.36,1.34-38.63.86-53.49-.38-10.84-.86-18.28-.86-18.28L605,64.3A6.35,6.35,0,0,1,607,65.57a6.59,6.59,0,0,1,2,4.51v.2a.49.49,0,0,0,0,.12c.52,12.2,1.82,23.64.73,50.27-1.5,37-17.8,71.61-17.8,71.61a12.08,12.08,0,0,0,2,9.51l28.77,39.56s-8.89,72.71-12,95.7c-4,29.9,0,49.84,0,49.84l.8,2.43c2.89,9.17,13,42.51,15.15,69.35.76,9.41,3.22,29.19,6.72,55.1,2.13,15.75,4.64,33.78,7.38,53.1C652,645.17,666.91,744.93,675.6,802.55Z"/><path class="cls-4" d="M415.91,234.66c0,18-28.56,35-46.5,35s-38.5-21.05-38.5-39,20.55-26,38.5-26S415.91,216.71,415.91,234.66Z"/><path class="cls-4" d="M459.71,481.86c-10.38,14.65-43.53,12.05-58.18,1.67s-19.24-39.43-8.86-54.08,31.8-9.33,46.44,1.05S470.09,467.22,459.71,481.86Z"/><path class="cls-4" d="M579,301c7.65,16.24-10.92,43.82-27.16,51.47s-43.8-2.65-51.45-18.89,7.53-32.28,23.77-39.92S571.33,284.73,579,301Z"/><path class="cls-4" d="M640.85,566.87c-7.74,5.12-16.46,8.6-23.68,9.17-17.89,1.42-40-17.94-41.47-35.83s18.43-27.54,36.33-29a62.7,62.7,0,0,1,21.44,2.52C635.6,529.52,638.11,547.55,640.85,566.87Z"/><path class="cls-4" d="M323.5,583.77c-4.17,17.46-35.9,27.41-53.36,23.24a25.44,25.44,0,0,1-4.16-1.4c3.94-22,7.84-43.48,11.49-63.15a61.93,61.93,0,0,1,7.78,1.33C302.71,548,327.67,566.32,323.5,583.77Z"/><path class="cls-4" d="M509.88,665.08c0,17.95-28.55,35-46.5,35s-38.5-21.05-38.5-39,20.55-26,38.5-26S509.88,647.13,509.88,665.08Z"/><path class="cls-4" d="M605.21,818.69c-16.88,6.11-42.64-14.92-48.75-31.8s6.68-43.36,23.55-49.48,31.45,10.47,37.56,27.34S622.08,812.58,605.21,818.69Z"/><path class="cls-4" d="M345,841.16c-.73,1.47-1.55,2.93-2.43,4.37a393.1,393.1,0,0,1-39.26-15c-9.29-4.12-18-8.41-26.12-12.75a58.5,58.5,0,0,1,16.35-9.87,57.35,57.35,0,0,1,13.87-3.44c15.66-2,34.07,1,39.89,12.64a11.93,11.93,0,0,1,.58,1.26C350.55,825,349,833.26,345,841.16Z"/><path class="cls-5" d="M347.29,817.13q-1.17,12.23-2.3,24c-.16,1.67-.32,3.34-.48,5l-1.95-.62a393.1,393.1,0,0,1-39.26-15q2-12.72,4.1-26.06c28-177.79,68.46-427.23,73.76-416.75C386.29,397.94,364.34,639,347.29,817.13Z"/><path class="cls-5" d="M481.1,863.52q-8.88.42-18.1.48-12.79.07-25.06-.64c6.94-183.12,19.26-478.57,26.2-467.86C470.77,405.76,477.38,679.62,481.1,863.52Z"/><path class="cls-5" d="M621.61,831.64a380.2,380.2,0,0,1-41.1,15c-13.72-181-34.12-465.16-26.12-455.57C561.89,400.12,597.22,652.14,621.61,831.64Z"/></svg>
