<svg id="Layer_1" data-name="Layer 1" xmlns="http://www.w3.org/2000/svg" width="922" height="922" viewBox="0 0 922 922"><defs><style>.cls-1{fill:none;}.cls-2{fill:#84bfd8;}.cls-3{fill:#fffaba;}.cls-4{fill:#d8963f;}.cls-5{opacity:0.29;}.cls-6{fill:#c4e8ff;}</style></defs><title>produktkategori_mundbind</title><circle class="cls-1" cx="461" cy="461" r="461"/><path class="cls-2" d="M723.57,389.26c-10.57-8.26-34.16-24.66-59-41.8-18-12.39-38.66-26-59.56-39.06-41.59-26-83.91-49.78-106.8-57.48C448,234,323.34,240.47,280.45,244.5S138.66,279.84,118.94,322C82.31,400.23,234.83,423.93,234.83,423.93s75.56,75,150.6,103.37,244.18,6.34,244.18,6.34,111.88,46.84,155.32-15C824,463,750.74,410.49,723.57,389.26ZM247.82,333.92c-5.46,20.6-15.52,80.92-15.52,80.92s-38.54-8.09-67.93-24.21c-24.46-13.41-40.43-34.2-42.35-43.76-5.69-28.44,44.91-63.91,79.06-73.65s78.18-17.6,78.18-17.6S257.05,299.11,247.82,333.92ZM783.55,488C771,527,740,541,710.66,539.09c-30.94-2-76.81-19.84-76.81-19.84s12.5-31.76,28.11-74.08c14.19-38.48,16-75.55,16-75.55S796.1,448.94,783.55,488Z"/><path class="cls-3" d="M399,286c0,17.95-28.55,35-46.5,35S314,300,314,282s20.55-26,38.5-26S399,268.05,399,286Z"/><path class="cls-3" d="M544,372.91c-2.81,17.73-24.89,19.34-42.61,16.53s-32.18-36.54-29.36-54.27,21.81-12.74,39.54-9.93S546.84,355.19,544,372.91Z"/><path class="cls-4" d="M612,496c0,18-21.55,23-39.5,23S535,488,535,470s19.55-16,37.5-16S612,478.05,612,496Z"/><path class="cls-3" d="M407.86,411.62c7.85,16.14-9.32,30.11-25.46,38s-47.31-11.52-55.16-27.66S337.82,399,354,391.13,400,395.47,407.86,411.62Z"/><path class="cls-3" d="M664.58,347.46c-5.31,5.72-12.85,10.55-20.18,14.12-16.14,7.85-47.31-11.52-55.16-27.66-6.08-12.5,3.6-19.4,15.78-25.52C625.92,321.46,646.62,335.07,664.58,347.46Z"/><path class="cls-5" d="M270.66,405.84a4.51,4.51,0,0,1,3.3-8c34,4.13,108.17,39.9,156.62,54.19,47.63,14.05,130.08,17.34,162.87,29.88a4.5,4.5,0,0,1-1,8.67c-35.1,4.42-116.21,12.13-172.58-2.1C362.76,474,297.34,426.57,270.66,405.84Z"/><path class="cls-5" d="M309.1,301.55A6.21,6.21,0,0,1,311,289.7c36.07-3.82,108.46-8.84,156.51,5.33,47.52,14,116.58,51.58,151.75,71.66a6.21,6.21,0,0,1-3.47,11.59C576.9,375.88,499.11,342,464.13,334.7,427,326.89,347.83,318.88,309.1,301.55Z"/><path class="cls-6" d="M785,625c-31,0-77-11-77-11s6-67,7-97c1.43-43-11-65-11-65s166,58,162,115C863.13,607.91,832,625,785,625ZM746,458c-30-17-195-67-248-69s-195,56-235,72S137,535,130,581c-13,85.42,140,65,140,65s118,34,198,40,236-63,236-63,145,36,168-36S776,475,746,458ZM257,556c.59,21.3,8,79,8,79s-39.26,6.15-72-1c-27.25-6-48.46-21.37-53-30-13.51-25.66,25-74,55-93s70-39,70-39S256,520,257,556Z"/><path class="cls-2" d="M330.93,491.06a6.22,6.22,0,0,1-1.55-11.9C362.89,465.3,430.91,440,481,440c49.55,0,126.42,16.5,165.83,25.8a6.21,6.21,0,0,1-.05,12.1c-38,8.7-122.15-1.75-157.78,1.1C451.14,482,373,496.73,330.93,491.06Z"/><path class="cls-2" d="M323.56,602a4.5,4.5,0,0,1,.9-8.63C358.2,587.68,439.5,601,490,601c49.66,0,129.68-20.16,164.68-17.41a4.5,4.5,0,0,1,1.45,8.61c-32.42,14.17-108,44.51-166.13,46.8C431.19,641.32,355,614.3,323.56,602Z"/></svg>
