<svg id="Layer_1" data-name="Layer 1" xmlns="http://www.w3.org/2000/svg" viewBox="0 0 262 262"><defs><style>.cls-1{fill:#cdebbf;}.cls-2{fill:#fffaba;}.cls-3{fill:#c4e8ff;}.cls-4{fill:#f8b2b2;}.cls-5{fill:#fff;}</style></defs><rect class="cls-1" y="127" width="131" height="135"/><rect class="cls-2" x="131" width="131" height="127"/><rect class="cls-3" x="59" y="127" width="203" height="135"/><rect class="cls-4" width="205" height="127"/><path class="cls-5" d="M75.85,132.85v73q0,21.09,3.44,25.23t22.5,5.39l3,.16v9.68H14.13V236.6l3-.16q18.9-1.24,22.42-5.39T43,205.82V55.5q0-21.14-3.52-25.18T17.1,25l-3-.31V15h90.63v9.69l-3,.31q-19.07,1.24-22.5,5.29T75.85,55.5v63.91h110V55.5q0-21.14-3.51-25.18T159.76,25l-2.82-.31V15h90.63v9.69l-3,.31q-19.07,1.24-22.5,5.29T218.66,55.5V205.82q0,21.09,3.44,25.23t22.5,5.39l3,.16v9.68H156.94V236.6l2.82-.16q19.22-1.24,22.65-5.31t3.44-25.31v-73Z"/></svg>
