<svg id="Layer_1" data-name="Layer 1" xmlns="http://www.w3.org/2000/svg" width="922" height="922" viewBox="0 0 922 922"><defs><style>.cls-1{fill:none;}.cls-2{fill:#8fd199;}.cls-3{fill:#c3fccf;}.cls-4{fill:#c4e8ff;}.cls-5{opacity:0.18;}</style></defs><title>produktkategori_overdel</title><circle class="cls-1" cx="461" cy="461" r="461"/><path class="cls-2" d="M148.21,547.91s46.68-266.48,69.41-280.66,97.92-32.77,97.92-32.77a498.1,498.1,0,0,0,39.35,40.26c20.11,18.26,64.44,44.72,74.6,43s35.75-30.72,49-55C492,238,506.65,202.25,506.65,202.25s66.58-8.27,86.49,4.62S790.8,467.62,790.8,467.62a133.66,133.66,0,0,1-33.46,38.15c-27.51,20.9-58.15,32-58.15,32l-81.42-106,73,131.14c10.9,19.57,59.85,69.59,59.85,69.59s-19.26,18-49.78,29.09c-20.27,7.39-45.75,6.28-73,14.85-20.47,6.44-38.28,22.66-60.12,28.29s-47.73.66-68.75,4.2c-24.72,4.17-43,16.34-66.56,17.14S380,716.32,359,714.91c-22-1.48-49.72,3.52-67.2.9-41.08-6.15-59.69-21-59.69-21s25.17-61.05,27.18-81.3l12.19-123.36L243.63,588s-38.43-9-51-13.56C167.41,565.36,148.21,547.91,148.21,547.91Z"/><path class="cls-3" d="M790.8,467.62a133.66,133.66,0,0,1-33.46,38.15c-27.51,20.9-58.15,32-58.15,32L617.81,431.84c1.52,2.73,46.13,82.86,67.56,121.33l5.43,9.75c10.89,19.56,59.84,69.59,59.84,69.59s-19.26,18-49.78,29.09c-20.27,7.39-45.75,6.28-73,14.85-20.48,6.44-38.28,22.67-60.12,28.29s-47.73.66-68.75,4.2c-24.71,4.17-43,16.34-66.56,17.14S380,716.32,359,714.91c-22-1.49-49.71,3.51-67.19.9-41.08-6.15-59.69-21-59.69-21s25.17-61.05,27.18-81.31c.06-.73.14-1.5.23-2.31,3.24-32.9,12-121,12-121L243.63,588s-38.43-9-51-13.56c-25.17-9.06-44.37-26.51-44.37-26.51s46.68-266.48,69.41-280.66,97.92-32.77,97.92-32.77,23.33,50.74,52.38,82.79c20.28,22.37,49.49,46.88,64.13,58.74A9,9,0,0,0,446,372.76c9.58-20.8,30.66-67,37.84-86.86,7-19.25,22.84-83.65,22.84-83.65s66.58-8.27,86.49,4.62S790.8,467.62,790.8,467.62Z"/><path class="cls-4" d="M750.64,632.51s-18.83,17.56-48.75,28.69c-.35.15-.68.27-1,.4a100.79,100.79,0,0,1-15.39,4.08c-17.16,3.33-36.88,4.24-57.6,10.77-2.22.7-4.42,1.51-6.58,2.42A137.58,137.58,0,0,0,606.9,686c-12.58,7-25,15.07-39.15,18.71-18.85,4.85-40.72,1.81-59.88,3.18-3,.21-6,.54-8.87,1q-3.36.57-6.57,1.32c-21.51,5-38.56,15.09-60,15.82-8.37.27-17.41-.86-26.53-2.53-5.41-1-10.84-2.15-16.18-3.3-11-2.39-21.64-4.72-30.75-5.34-15.24-1-33.17,1-48.58,1.54a112.69,112.69,0,0,1-16.72-.4c-.65-.07-1.27-.15-1.89-.24-41.08-6.15-59.69-21-59.69-21s25.17-61.05,27.18-81.31c.06-.73.14-1.5.23-2.31,48.63,8.73,129.77,20,212.73,9.13,74.73-9.81,155.41-33.59,213.13-67.18l5.43,9.75C701.69,582.48,750.64,632.51,750.64,632.51Z"/><path class="cls-5" d="M310.4,716.45a112.69,112.69,0,0,1-16.72-.4c7.35-28.62,23-88.18,25.41-86.2S314.38,686.79,310.4,716.45Z"/><path class="cls-5" d="M405.91,723.55c-5.41-1-10.84-2.15-16.18-3.3,3.78-30.45,11.12-86.58,13.67-85S406.05,694,405.91,723.55Z"/><path class="cls-5" d="M701.89,661.2c-.35.15-.68.27-1,.4a100.79,100.79,0,0,1-15.39,4.08c-11.82-27.62-34.94-82.59-31.87-82.5S687.77,636.61,701.89,661.2Z"/><path class="cls-5" d="M621.29,678.87A137.58,137.58,0,0,0,606.9,686c-9.42-29.47-25.83-82.09-22.89-81.73S608.56,651.07,621.29,678.87Z"/><path class="cls-5" d="M507.87,707.92c-3,.21-6,.54-8.87,1q-3.36.57-6.57,1.32c-2.84-31.3-7-82.18-4.35-81.23S501.41,677.84,507.87,707.92Z"/></svg>
