<?xml version="1.0" standalone="no"?>
<!DOCTYPE svg PUBLIC "-//W3C//DTD SVG 20010904//EN"
 "http://www.w3.org/TR/2001/REC-SVG-20010904/DTD/svg10.dtd">
<svg version="1.0" xmlns="http://www.w3.org/2000/svg"
 width="262.000000pt" height="262.000000pt" viewBox="0 0 262.000000 262.000000"
 preserveAspectRatio="xMidYMid meet">
<metadata>
Created by potrace 1.11, written by Peter Selinger 2001-2013
</metadata>
<g transform="translate(0.000000,262.000000) scale(0.100000,-0.100000)"
fill="#000000" stroke="none">
<path d="M0 1985 l0 -635 199 0 c110 0 206 -3 215 -6 14 -6 16 33 16 397 -1
402 -8 538 -32 567 -21 25 -70 41 -167 53 l-91 12 0 48 0 49 456 0 455 0 -3
-47 -3 -48 -60 -8 c-33 -5 -88 -15 -122 -24 -101 -24 -97 -9 -101 -500 l-3
-413 551 0 552 0 -4 403 c-5 452 -7 469 -68 499 -19 9 -77 22 -127 29 l-93 12
0 48 0 49 240 0 240 0 0 75 0 75 -1025 0 -1025 0 0 -635z"/>
<path d="M101 234 c0 -11 3 -14 6 -6 3 7 2 16 -1 19 -3 4 -6 -2 -5 -13z"/>
</g>
</svg>
