<svg id="Layer_1" data-name="Layer 1" xmlns="http://www.w3.org/2000/svg" width="922" height="922" viewBox="0 0 922 922"><defs><style>.cls-1{fill:#fffaba;}.cls-2{fill:none;}.cls-3{fill:#93d19d;}.cls-4{fill:#c3fccf;}</style></defs><title>produktkategori_taske2</title><circle class="cls-1" cx="347.21" cy="749.92" r="24.67"/><circle class="cls-2" cx="461" cy="461" r="461"/><path class="cls-3" d="M595.57,423.09s14.1-98.47,2.33-185.63C587.57,160.94,554.54,110,512,102c-70.43-13.21-121.72,46.63-147.62,126.54C337.32,312,337.24,401,337,401c-30.43-2.75-84.14,9.76-84.14,9.76-17.1,32.13-57.57,242.52,8.53,304.51,30.77,28.84,99.5,44.08,169.61,48.35,80.55,4.9,162.91-4.67,191.63-24.72,47-32.79,50.71-293.86,50.71-293.86ZM574,419s-70-7-108-10-103-6-103-6-15-115,45-229c17.67-33.58,48.45-65.68,86-58,44,9,76.66,50.85,85,123.35C588.7,322.75,574,419,574,419Z"/><circle class="cls-1" cx="240.33" cy="458.53" r="24.67"/><path class="cls-4" d="M626,442c13-109-11.09-325.26-123.68-344.83a87,87,0,0,0-31.95.43C323,143,327.52,365.19,304,431c-4.5,12.6-51.14-20.24-51.14-20.24-17.1,32.13-57.57,242.52,8.53,304.51,30.77,28.84,99.5,44.08,169.61,48.35,80.55,4.9,162.91-4.67,191.63-24.72,47-32.79,50.71-293.86,50.71-293.86S624.55,454.19,626,442Zm-26,5c-14.87,15.94-67,17.75-151.17,15C416,462,375,461,350,452c-33.19-11.95,18-316.12,119.52-340a64,64,0,0,1,19.64-1.62C626.12,120.84,619.9,425.69,600,447Z"/><circle class="cls-1" cx="233.21" cy="588.92" r="24.67"/><circle class="cls-1" cx="624.49" cy="518.78" r="24.67"/><circle class="cls-1" cx="650.49" cy="646.78" r="24.67"/><circle class="cls-1" cx="490.49" cy="620.78" r="24.67"/><circle class="cls-1" cx="393.49" cy="512.78" r="24.67"/></svg>
