<svg height="678.7" viewBox="0 0 476.14 678.7" width="476.14" xmlns="http://www.w3.org/2000/svg"><path d="m44.32 314.86c-17.1 32.14-57.57 242.52 8.53 304.51 30.77 28.84 99.5 44.08 169.61 48.35 80.55 4.9 162.91-4.67 191.63-24.72 47-32.79 50.71-293.86 50.71-293.86s-91.34-36-250.34-45c-86.14-4.91-170.14 10.72-170.14 10.72z" fill="#c7d9cf"/><circle cx="31.79" cy="362.63" fill="#d1e5d8" r="24.67"/><g fill="#fff"><circle cx="24.29" cy="406.19" r="17"/><circle cx="83.36" cy="507.78" r="17"/><circle cx="169.91" cy="399.48" r="17"/><circle cx="363.89" cy="464.06" r="17"/><circle cx="254.14" cy="606.77" r="27.5"/><circle cx="232.42" cy="493.45" r="24.67"/><circle cx="413.48" cy="597.57" r="17"/><circle cx="459.13" cy="407.92" r="17"/></g><path d="m141.46 356.1c25 9 66 10 98.83 10l-17.83 301.62c-70.11-4.27-138.84-19.51-169.61-48.35-66.1-62-25.63-272.38-8.53-304.51 0 0 46.64 32.84 51.14 20.24 23.53-65.81 19-288 166.37-333.4l-.83 14.44c-101.53 23.86-152.72 328.02-119.54 339.96z" fill="#6cad86"/><path d="m414.09 643c-28.72 20-111.08 29.62-191.63 24.72l17.83-301.58c84.21 2.71 136.3.9 151.17-15 19.9-21.31 26.12-326.16-110.84-336.58a64 64 0 0 0 -19.62 1.58l.85-14.44a87 87 0 0 1 31.95-.43c112.57 19.57 136.66 235.83 123.66 344.83-1.45 12.2 47.34 3 47.34 3s-3.72 261.11-50.71 293.9z" fill="#79b792"/><circle cx="24.67" cy="493.02" fill="#d1e5d8" r="24.67"/><circle cx="138.67" cy="654.02" fill="#d1e5d8" r="24.67"/><circle cx="415.96" cy="422.88" fill="#52a072" r="24.67"/><circle cx="441.96" cy="550.88" fill="#52a072" r="24.67"/><circle cx="281.96" cy="524.88" fill="#52a072" r="24.67"/><circle cx="184.96" cy="416.88" fill="#d1e5d8" r="24.67"/></svg>
