<svg id="Layer_1" data-name="Layer 1" xmlns="http://www.w3.org/2000/svg" width="922" height="922" viewBox="0 0 922 922"><defs><style>.cls-1{fill:none;}.cls-2{fill:#d88888;}.cls-3{fill:#f8b2b2;}.cls-4{fill:#ffe4e4;}.cls-5{fill:#e9ac4f;}.cls-6{fill:#fffaba;}.cls-7{opacity:0.18;}</style></defs><title>produktkategori_toj2</title><circle class="cls-1" cx="461" cy="461" r="461"/><path class="cls-2" d="M685.74,423.88a133.09,133.09,0,0,1-38.5,32.57c-30.1,16.48-61.84,22.86-61.84,22.86L529.89,374.63,560.3,595.48s-35.69,41.34-174.66,43.91c-169.37,3.13-216.87-38.25-216.87-38.25L181,381.08l-41.74,92a240.08,240.08,0,0,1-48.17-20.83C68,439.1,51.42,419.68,51.42,419.68s85.07-255,109.49-265.57c13.72-5.94,43.9-10.83,67.72-14,4.51-.6,8.8-1.13,12.7-1.59,12.17-1.46,20.61-2.25,20.61-2.25s39,32,96,31.83c49.11-.14,96.51-35.39,96.51-35.39s8.55.22,20.32,1.2c3.4.28,7.05.64,10.85,1.07,19.87,2.23,43.63,6.58,53.13,15C556.43,165.62,685.74,423.88,685.74,423.88Z"/><path class="cls-3" d="M685.74,423.88a133.09,133.09,0,0,1-38.5,32.57c-30.1,16.48-61.84,22.86-61.84,22.86L529.89,374.63,560.3,595.48s-35.69,41.34-174.66,43.91c-169.37,3.13-216.87-38.25-216.87-38.25L181,381.08l-41.74,92a240.08,240.08,0,0,1-48.17-20.83C68,439.1,51.42,419.68,51.42,419.68s85.07-255,109.49-265.57c13.72-5.94,43.9-10.83,67.72-14,4.51-.6,8.8-1.13,12.7-1.59,12.17-1.46,20.61-2.25,20.61-2.25s14.62,48.32,46.32,77.33c13.5,12.37,32.37,17.64,50.76,17.72a100.72,100.72,0,0,0,11.7-.64c17.3-2,33-8.4,41.79-17.56,14.1-14.64,41.95-80.41,41.95-80.41s8.55.22,20.32,1.2c3.4.28,7.05.64,10.85,1.07,19.87,2.23,43.63,6.58,53.13,15C556.43,165.62,685.74,423.88,685.74,423.88Z"/><path class="cls-4" d="M485.63,135,470,348.23l-220,4.06L228.63,140.16c4.51-.6,8.8-1.13,12.7-1.59,12.17-1.46,20.61-2.25,20.61-2.25s14.62,48.32,46.32,77.33c13.5,12.37,32.37,17.64,50.76,17.72a100.72,100.72,0,0,0,11.7-.64c17.3-2,33-8.4,41.79-17.56,14.1-14.64,41.95-80.41,41.95-80.41s8.55.22,20.32,1.2C478.18,134.24,481.83,134.6,485.63,135Z"/><circle class="cls-2" cx="356.94" cy="261.99" r="8.69"/><circle class="cls-2" cx="358.09" cy="324.23" r="8.69"/><circle class="cls-2" cx="359.24" cy="386.47" r="8.69"/><path class="cls-5" d="M209.29,555.7s98-252.16,123.1-261.61,102.44-12.93,102.44-12.93a498.36,498.36,0,0,0,30.7,47.2c16.14,21.85,54.41,56.49,64.71,56.8s41.08-23.11,58.83-44.31C607.18,319.22,628.55,287,628.55,287s66.91,4.94,83.91,21.49S855.16,603,855.16,603a133.71,133.71,0,0,1-40.3,30.86c-31.07,15.09-63.29,19.95-63.29,19.95L692.51,533.89,738.4,676.81c6.85,21.32,45,80,45,80s-22.4,13.83-54.51,18.76c-21.32,3.28-46.09-2.8-74.48.26-21.34,2.3-42,14.71-64.5,15.94S543,783,521.7,782.39c-25.06-.76-45.35,7.59-68.63,3.75s-49.55-19.86-69.83-25.36c-21.32-5.77-49.45-6.3-66.07-12.29-39.09-14.09-54.43-32.26-54.43-32.26s36.66-54.93,42.6-74.4l36.14-118.57L295,613.7s-35.92-16.38-47.41-23.31C224.7,576.58,209.29,555.7,209.29,555.7Z"/><path class="cls-6" d="M855.16,603a133.87,133.87,0,0,1-40.3,30.86c-31.07,15.09-63.29,19.95-63.29,19.95L692.54,534c1,3,29,90.29,42.45,132.22l3.41,10.63c6.85,21.32,45,80,45,80s-22.4,13.83-54.51,18.76c-21.32,3.28-46.1-2.81-74.49.25-21.34,2.3-42,14.73-64.49,16S543,783,521.7,782.39c-25.05-.76-45.35,7.59-68.63,3.75s-49.55-19.86-69.84-25.36c-21.32-5.77-49.44-6.3-66.06-12.29-39.09-14.09-54.43-32.26-54.43-32.26s36.66-54.93,42.6-74.41c.21-.7.43-1.44.68-2.22,9.63-31.62,35.46-116.34,35.46-116.34L295,613.7s-35.92-16.39-47.41-23.31c-22.9-13.81-38.31-34.69-38.31-34.69s98-252.16,123.1-261.61,102.44-12.93,102.44-12.93,12.94,54.33,35.14,91.45c15.5,25.91,39.33,55.68,51.36,70.18a9.06,9.06,0,0,0,14.29-.45c13.47-18.52,43.21-59.72,54.14-77.76,10.6-17.51,38.79-77.55,38.79-77.55s66.91,4.94,83.91,21.49S855.16,603,855.16,603Z"/><path class="cls-5" d="M783.43,756.78S761.54,770.31,730,775.36l-1.09.18a100.25,100.25,0,0,1-15.89,1c-17.47-.1-37-3.07-58.6-.74q-3.46.39-6.92,1.09a138.84,138.84,0,0,0-15.51,4.2c-13.71,4.38-27.49,9.87-42.06,10.66-19.44,1.06-40.29-6.2-59.34-8.62-3-.38-6-.64-8.9-.73-2.27-.07-4.5-.07-6.71,0-22.06.66-40.76,7.23-61.92,3.75-8.26-1.37-16.9-4.26-25.52-7.68-5.11-2-10.21-4.24-15.21-6.41-10.35-4.5-20.31-8.87-29.11-11.27-14.75-4-32.74-5.48-47.94-8A113.23,113.23,0,0,1,319,749.1c-.62-.19-1.21-.4-1.8-.61-39.09-14.09-54.43-32.26-54.43-32.26s36.66-54.93,42.6-74.41c.21-.7.43-1.44.68-2.22,46,18.1,123.32,45.08,206.81,50.67,75.2,5,159-2.47,222.16-24.09l3.41,10.63C745.25,698.13,783.43,756.78,783.43,756.78Z"/><path class="cls-7" d="M335.29,752.77A113.23,113.23,0,0,1,319,749.1c12.82-26.63,39.82-82,41.82-79.54S345,724.46,335.29,752.77Z"/><path class="cls-7" d="M427.55,778.46c-5.11-2-10.21-4.24-15.21-6.41,9.67-29.12,27.87-82.72,30.07-80.68S433.49,749.46,427.55,778.46Z"/><path class="cls-7" d="M730,775.36l-1.09.18a100.25,100.25,0,0,1-15.89,1c-6.18-29.4-18.07-87.84-15.07-87.15S721,748.48,730,775.36Z"/><path class="cls-7" d="M647.51,776.88a138.84,138.84,0,0,0-15.51,4.2c-3.46-30.75-9.23-85.57-6.42-84.64S640.48,747.12,647.51,776.88Z"/><path class="cls-7" d="M530.6,783.12c-3-.38-6-.64-8.9-.73-2.27-.07-4.5-.07-6.71,0,3.35-31.24,9.22-82,11.67-80.5S530.16,752.36,530.6,783.12Z"/></svg>
