<svg id="Layer_1" data-name="Layer 1" xmlns="http://www.w3.org/2000/svg" width="922" height="922" viewBox="0 0 922 922"><defs><style>.cls-1{fill:none;}.cls-2{fill:#c4e8ff;}.cls-3{fill:#7dacc6;}.cls-4{fill:#a3cfe2;}.cls-5{fill:#d88888;}.cls-6{fill:#f8b2b2;}.cls-7{fill:#ffe4e4;}</style></defs><title>produktkategori_toj</title><circle class="cls-1" cx="461" cy="461" r="461"/><path class="cls-2" d="M779.55,521.72C792,629.23,793.84,740.43,793.84,740.43s-200.77,42.68-200.52.65c.19-31.23-55.64-296.4-72.5-302.14-28.05-9.54-81.18,254.05-83.65,301.2-.48,9.09-77.08-7.7-122.25-30.11-67-33.2-78.9-71.68-78.9-71.68S250.51,516,287.58,428.47c13.25-31.26,27.7-66.09,41.31-98.62C352.5,273.47,373.64,224,381.71,211.7c.31-.49.61-.91.89-1.28,3.88-5.1,47.21-11.42,92.2-13.83,20.8-1.08,41.92-1.34,59.68-.24,20.92,1.29,41.78,2.67,61.14,4.26,49.89,4.1,89.91,9.6,95.53,18.39.11.17.19.31.28.48,6.92,14.05,29.3,74.72,50,142.26C758.58,417.88,774.57,478.8,779.55,521.72Z"/><path class="cls-3" d="M691.15,219c-33.23,28.08-109.26,54.19-164,54.14-58.58,0-125.29-33.14-145.43-61.44.31-.49.61-.91.89-1.28,5.67-7.46,95.68-17.53,151.88-14.07C609.26,201,683.35,206.79,691.15,219Z"/><path class="cls-4" d="M460.89,261.22c-22.73,45.34-66.15,92.64-101.78,83.89a75,75,0,0,1-30.22-15.26C352.5,273.47,373.64,224,381.71,211.7,394.32,229.41,425.19,249,460.89,261.22Z"/><path class="cls-4" d="M741.39,361.74c-14.15,10.45-28.61,17.53-41.25,19.26-58.56,8-87.63-64.79-99.73-119.24,36.39-10.21,71.08-26.12,90.74-42.76.11.17.19.31.28.48C698.35,233.53,720.73,294.2,741.39,361.74Z"/><path class="cls-5" d="M705.74,437.88a133.09,133.09,0,0,1-38.5,32.57c-30.1,16.48-61.84,22.86-61.84,22.86L549.89,388.63,580.3,609.48s-35.69,41.34-174.66,43.91c-169.37,3.13-216.87-38.25-216.87-38.25L201,395.08l-41.74,92a240.08,240.08,0,0,1-48.17-20.83C88,453.1,71.42,433.68,71.42,433.68s85.07-255,109.49-265.57c13.72-5.94,43.9-10.83,67.72-14,4.51-.6,8.8-1.13,12.7-1.59,12.17-1.46,20.61-2.25,20.61-2.25s39,32,96,31.83c49.11-.14,96.51-35.39,96.51-35.39s8.55.22,20.32,1.2c3.4.28,7.05.64,10.85,1.07,19.87,2.23,43.63,6.58,53.13,15C576.43,179.62,705.74,437.88,705.74,437.88Z"/><path class="cls-6" d="M705.74,437.88a133.09,133.09,0,0,1-38.5,32.57c-30.1,16.48-61.84,22.86-61.84,22.86L549.89,388.63,580.3,609.48s-35.69,41.34-174.66,43.91c-169.37,3.13-216.87-38.25-216.87-38.25L201,395.08l-41.74,92a240.08,240.08,0,0,1-48.17-20.83C88,453.1,71.42,433.68,71.42,433.68s85.07-255,109.49-265.57c13.72-5.94,43.9-10.83,67.72-14,4.51-.6,8.8-1.13,12.7-1.59,12.17-1.46,20.61-2.25,20.61-2.25s14.62,48.32,46.32,77.33c13.5,12.37,32.37,17.64,50.76,17.72a100.72,100.72,0,0,0,11.7-.64c17.3-2,33-8.4,41.79-17.56,14.1-14.64,41.95-80.41,41.95-80.41s8.55.22,20.32,1.2c3.4.28,7.05.64,10.85,1.07,19.87,2.23,43.63,6.58,53.13,15C576.43,179.62,705.74,437.88,705.74,437.88Z"/><path class="cls-7" d="M505.63,149,490,362.23l-220,4.06L248.63,154.16c4.51-.6,8.8-1.13,12.7-1.59,12.17-1.46,20.61-2.25,20.61-2.25s14.62,48.32,46.32,77.33c13.5,12.37,32.37,17.64,50.76,17.72a100.72,100.72,0,0,0,11.7-.64c17.3-2,33-8.4,41.79-17.56,14.1-14.64,41.95-80.41,41.95-80.41s8.55.22,20.32,1.2C498.18,148.24,501.83,148.6,505.63,149Z"/><circle class="cls-5" cx="376.94" cy="275.99" r="8.69"/><circle class="cls-5" cx="378.09" cy="338.23" r="8.69"/><circle class="cls-5" cx="379.24" cy="400.47" r="8.69"/></svg>
