<svg id="Layer_1" data-name="Layer 1" xmlns="http://www.w3.org/2000/svg" width="922" height="922" viewBox="0 0 922 922"><defs><style>.cls-1{fill:none;}.cls-2{fill:#fffaa1;}.cls-3{fill:#ffdaa9;}.cls-4{fill:#f8b2b2;}</style></defs><title>produktkategori_underdel2</title><circle class="cls-1" cx="461" cy="461" r="461"/><path class="cls-2" d="M699.31,515.91c-2.21,108.21-15.46,218.63-15.46,218.63s-204.7,15.1-198.76-26.5c4.42-30.92-15-301.21-30.91-309.18C427.68,385.61,339.34,639.58,330.51,686c-1.7,8.95-75.33-18.06-117-46.37-61.83-42-68.46-81.72-68.46-81.72s30.92-119.25,79.5-201c17.36-29.17,36.4-61.72,54.29-92.11,31-52.67,58.67-98.87,68.32-109.91.38-.45.73-.82,1.06-1.15,4.53-4.53,48.32-4.93,93.22-1.22,20.76,1.75,41.72,4.35,59.16,7.84,20.56,4.11,41,8.31,60,12.5,48.87,10.82,87.78,21.69,92.15,31.16a3.74,3.74,0,0,1,.22.51c5,14.86,18.91,78,30.24,147.72C692.6,410.19,700.19,472.71,699.31,515.91Z"/><path class="cls-3" d="M652.71,204C616,227.33,537.12,242.9,482.89,235.44c-58-8-119.66-49.8-135.78-80.56.38-.45.73-.82,1.06-1.15,6.63-6.63,97.17-4.42,152.38,6.62C574,175,646.64,190.85,652.71,204Z"/><path class="cls-4" d="M418.86,214.66c-28.66,41.85-78.08,82.83-112.2,69.34a75.08,75.08,0,0,1-27.87-19.21c31-52.67,58.67-98.87,68.32-109.91C357.21,174.13,385.14,197.74,418.86,214.66Z"/><path class="cls-4" d="M683.17,352.24c-15.44,8.44-30.72,13.49-43.49,13.49-59.09,0-78-76.05-82.66-131.64,37.43-5.19,74-16.25,95.69-30.08a3.74,3.74,0,0,1,.22.51C657.88,219.38,671.84,282.52,683.17,352.24Z"/></svg>
