<svg id="Layer_1" data-name="Layer 1" xmlns="http://www.w3.org/2000/svg" width="922" height="922" viewBox="0 0 922 922"><defs><style>.cls-1{fill:none;}.cls-2{fill:#c4e8ff;}.cls-3{fill:#fff597;}.cls-4{fill:#f8b2b2;}.cls-5{fill:#c3fccf;}.cls-6{fill:#e9ac4f;}</style></defs><title>usp_unika</title><circle class="cls-1" cx="461" cy="461" r="461"/><path class="cls-2" d="M393.2,678.94a1.25,1.25,0,0,1-.61.57c-5.21,2.28-55.15,27.39-62.71,61.76-7.93,36.05,3.63,56.86,18.63,64s50.54-9.69,62.16-47.06c11.06-35.58,7.71-62.41,7.33-66.66a1.29,1.29,0,0,1,.12-.64l241.17-501a1.32,1.32,0,0,0-2.36-1.19Zm-2.27,82.13c-5.81,18.68-25.3,33.93-35.3,29.18-15-7.12-17.87-26.86-12.07-45.55,4.93-15.85,29.75-50.19,47.42-41.8C411,712.39,396.74,742.39,390.93,761.07Z"/><path class="cls-3" d="M203.46,330.81v162.8c0,61.6,27.34,87.72,64.06,87.72,40.8,0,66.91-26.93,66.91-87.72V330.81h35.91V491.16c0,84.46-44.47,119.14-104,119.14-56.31,0-98.74-32.24-98.74-117.51v-162Z"/><path class="cls-4" d="M401.25,487.64a635.62,635.62,0,0,1,1.6,76.84q-.44,10.9-1.24,21.8a4.46,4.46,0,0,0,3.9,4.42,4.51,4.51,0,0,0,4.93-3.23c3.21-11,3-22.6,2.88-33.91,0-5.6-.06-11.21.37-16.79.1-1.31.23-2.62.38-3.93,0-.24.16-1.12,0-.16,0-.32.09-.64.14-1q.16-1.05.36-2.1a51.69,51.69,0,0,1,2-7.73c.21-.59.44-1.18.66-1.76.45-1.18-.38.82.14-.32.1-.23.2-.46.31-.68.68-1.45,1.44-2.86,2.19-4.28q2.14-4.05,4.45-8A144.13,144.13,0,0,1,432.7,494l.95-1.26c.15-.21.4-.68-.15.18.16-.24.38-.47.56-.7.63-.79,1.27-1.57,1.93-2.33,1.18-1.37,2.41-2.69,3.72-3.94.56-.53,1.13-1.05,1.71-1.55.28-.24.56-.48.84-.7,1-.81-.69.49.18-.14a26.32,26.32,0,0,1,3.38-2.13l.78-.39c.16-.07.32-.13.47-.21s-1.2.46-.61.26,1.1-.4,1.66-.56,1-.21,1.48-.33-1.45.13-.32.05l.86-.05c.47,0,.94,0,1.41.06.93,0-1.3-.25-.37-.05.27.05.54.1.81.17.46.11.9.25,1.34.4,1,.33-.71-.35-.29-.13l.77.37a14.6,14.6,0,0,1,1.27.75l.62.42c.95.66-.7-.59-.11-.09a27.77,27.77,0,0,1,2.43,2.3q.59.64,1.14,1.32c.77.95-.36-.5,0-.05s.45.59.66.9c.8,1.12,1.55,2.29,2.24,3.48s1.46,2.64,2.13,4c.33.68.66,1.37,1,2.06l.48,1.06c.08.18.16.37.23.55.17.38.67,1,0-.09a13.16,13.16,0,0,1,.92,2.27c.34.87.67,1.73,1,2.6.62,1.7,1.2,3.4,1.76,5.12,2.53,7.77,4.53,15.72,6.31,23.7,3.89,17.49,6.7,35.21,9.44,52.92.94,6.12,1.67,12.27,4.22,18,1.57,3.53,4.29,6.94,8.2,8,8.6,2.23,15.73-6.68,20.19-12.67,7.15-9.63,12.53-20.62,17.37-31.55A320.64,320.64,0,0,0,550,525.72c3.34-11.46,6.29-23.4,6.83-35.37a46,46,0,0,0-.07-6.1h-9a257.93,257.93,0,0,0,5.14,32,305.67,305.67,0,0,0,10.57,38.06c4,11.24,8.69,22.63,16.1,32.09,5.31,6.76,13.65,12.66,22.62,9.57,4.9-1.69,8.9-5.2,12.11-9.2A89.25,89.25,0,0,0,625.76,567c1.07-2.42,2.09-4.86,3.08-7.31.88-2.19-1-5-3.14-5.54-2.61-.59-4.6.8-5.54,3.14l-.69,1.72c-.11.27-.83,2-.38.91-.45,1.06-.91,2.11-1.38,3.16q-1.31,2.89-2.74,5.73a85.71,85.71,0,0,1-5.25,9c-.41.6-.83,1.2-1.26,1.79a5.67,5.67,0,0,0-.6.79c.5-1,.47-.59.18-.23-.14.16-.27.33-.4.49a36,36,0,0,1-2.55,2.83c-.4.4-.81.78-1.23,1.16l-.64.55-.26.21c-.59.5.22-.21.4-.31-.88.47-1.65,1.17-2.54,1.64l-.63.32c-.21.1-1,.43-.09.06s.13-.06-.09,0l-.74.25c-.37.11-.74.2-1.12.28-.19,0-.42,0-.61.1,1.41-.43,1-.1.46-.07-.82,0-1.6,0-2.41-.06,1.81,0,.55.08-.06-.06a12.49,12.49,0,0,1-1.23-.37l-.53-.19c-.73-.25,1.21.56.43.18-.41-.2-.81-.39-1.21-.61-.78-.44-1.49-1-2.22-1.46-.42-.3,1.09.89.24.18l-.55-.47c-.38-.33-.75-.67-1.11-1-.74-.72-1.44-1.47-2.11-2.25-.35-.4-.69-.81-1-1.22-.76-.94.38.53.07.1l-.53-.69c-.72-1-1.4-2-2.06-3-1.41-2.19-2.69-4.46-3.89-6.77-1.31-2.53-2.52-5.11-3.65-7.73-.14-.31-.27-.62-.4-.93-.39-.89.4,1,0-.08-.31-.74-.62-1.48-.92-2.23-.56-1.42-1.11-2.84-1.64-4.27a290.68,290.68,0,0,1-10.76-37q-2-8.65-3.49-17.4-.66-3.78-1.21-7.57c-.09-.6-.17-1.2-.25-1.8s.17,1.31,0,.32c0-.34-.09-.68-.13-1-.13-1-.26-2.1-.37-3.15s-.2-1.92-.28-2.87c-.2-2.34-1.93-4.62-4.5-4.5-2.27.1-4.71,2-4.5,4.5a48,48,0,0,1,.06,6.35c-.06,1.21-.15,2.41-.27,3.62-.06.6-.12,1.21-.19,1.81,0,.31-.08.62-.11.93,0,.13,0,.25-.05.38-.1.75.19-1.36,0-.25a171.53,171.53,0,0,1-3.5,17.39,297.79,297.79,0,0,1-13.09,39.44l-1,2.33c-.17.39-.33.77-.49,1.16.59-1.42-.09.21-.23.54q-1,2.34-2,4.65-2,4.54-4.25,9a166.83,166.83,0,0,1-8.77,15.75q-2,3.21-4.32,6.24c-.62.83.71-.9.09-.11l-.51.64c-.37.45-.74.9-1.12,1.34-.68.79-1.37,1.55-2.1,2.28s-1.34,1.3-2.05,1.89l-.48.39c-.42.36,1.17-.85.34-.27l-1,.68c-.3.19-.61.37-.92.54l-.46.23c-.78.4.11-.1.49-.19-.61.15-1.21.37-1.83.53,1-.24,1.18-.09.28-.09s-.95-.27.21.09c-.25-.08-.53-.12-.78-.19s-.26-.12-.39-.14c1.39.28,1.05.5.54.2-.24-.14-.48-.34-.73-.46s1.07.94.48.36l-.42-.39c-.24-.24-.45-.5-.67-.75s.84,1.2.31.39l-.35-.51a21.08,21.08,0,0,1-1.23-2.3c-.4-.84.46,1.17.13.29-.09-.23-.19-.46-.27-.69-.21-.55-.39-1.1-.57-1.66a55.94,55.94,0,0,1-1.76-8.1c-2.73-17.67-5.43-35.35-9.07-52.86-3.18-15.29-6.83-30.95-13.7-45.07-4.69-9.63-12.64-20.15-24.67-18.2-5.83.95-10.93,4.95-15,9-6.69,6.76-11.93,15-16.63,23.23-3,5.24-6.08,10.57-8,16.3a68.92,68.92,0,0,0-3,16.54c-.89,11.26.05,22.57-.6,33.84-.08,1.32-.18,2.63-.3,4-.07.65-.14,1.3-.22,1.95,0,.24-.14,1.12,0,.16,0,.32-.09.64-.14,1a58.94,58.94,0,0,1-1.67,7.65l8.84,1.2a635.69,635.69,0,0,0,1-76.85q-.51-10.9-1.4-21.79c-.19-2.34-1.94-4.61-4.5-4.5-2.28.1-4.71,2-4.5,4.5Z"/><path class="cls-2" d="M624.59,410.1q2.2,13.44,4.28,26.9,1.39,9.13,2.71,18.29c.48,3.33.94,6.65,1.4,10,.11.77.21,1.53.32,2.3.05.43.11.87.17,1.3,0,.19,0,.39.08.58.09.69,0,.24,0-.18.21,1.75.46,3.5.69,5.25,1.81,13.82,3.43,27.66,4.67,41.54,1.08,12,2,24.13,1.88,36.22a117.77,117.77,0,0,1-.72,13.41c0,.23-.16,1.2,0,.2s0-.1,0,.11c-.07.47-.15,1-.23,1.42-.14.8-.3,1.6-.5,2.39s-.36,1.39-.59,2.08c-.1.3-.21.59-.32.89-.3.82.49-1.06.23-.54-.06.14-.12.28-.19.41a9.21,9.21,0,0,1-.8,1.4,4.52,4.52,0,0,0,1.62,6.16,4.61,4.61,0,0,0,6.15-1.62c1.73-2.48,2.52-5.7,3-8.63a92.06,92.06,0,0,0,1.27-13.46,315.66,315.66,0,0,0-1.35-35.06c-1.13-14-2.7-27.87-4.46-41.76q-2.58-20.28-5.65-40.5-2.19-14.54-4.57-29c-.13-.81-.26-1.62-.4-2.43-.38-2.33-3.39-3.84-5.53-3.15a4.63,4.63,0,0,0-3.15,5.54Z"/><path class="cls-2" d="M677.42,478.63c-1.14,3.89-2.45,7.72-4,11.48-.18.46-.37.91-.55,1.36l-.24.58c.3-.71,0-.05,0,.08-.42,1-.84,1.92-1.28,2.87-.85,1.84-1.75,3.66-2.68,5.45-1.87,3.6-3.92,7.1-6.12,10.49-1.11,1.7-2.25,3.37-3.44,5-.57.8-1.15,1.58-1.74,2.36-.13.18-.93,1.21-.44.59-.35.44-.69.88-1,1.31a125.06,125.06,0,0,1-9.23,10.28,4.55,4.55,0,0,0,3.18,7.69c.43,0,.85,0,1.28,0l.72.07c1.08.1-1-.17-.34,0,.88.17,1.75.33,2.62.58l1.2.39.67.25c1,.38-.84-.39-.27-.12.83.39,1.66.78,2.45,1.23a28.26,28.26,0,0,1,2.39,1.51c.37.25.73.52,1.1.79.78.59-.76-.61-.23-.18l.67.55a51.66,51.66,0,0,1,4.46,4.17c1.48,1.56,2.89,3.19,4.25,4.86.33.4.66.81,1,1.22l.49.61.24.31c.5.64-.71-.92-.22-.28.68.9,1.36,1.8,2,2.71,2.71,3.68,5.29,7.46,7.9,11.2,4.79,6.86,9.69,14.22,16.29,19.48a25.11,25.11,0,0,0,10.24,5.36,19.92,19.92,0,0,0,12.38-1.48c4.29-1.9,8-5.18,11.13-8.61a101.72,101.72,0,0,0,12.45-17.45q1.68-2.85,3.25-5.75A4.5,4.5,0,1,0,740.2,555c-2,3.69-4.11,7.33-6.38,10.86q-1.43,2.21-2.94,4.35c-.46.64-.92,1.27-1.39,1.9l-.34.45c-.36.48.55-.7.19-.24l-.77,1a54.54,54.54,0,0,1-5.55,6c-.42.37-.83.74-1.26,1.1l-.62.51c-.83.67.76-.55.07-.05-.84.59-1.67,1.18-2.56,1.69-.39.22-.78.43-1.18.63l-.58.28c-1,.46.86-.33.28-.12a20.41,20.41,0,0,1-2.41.76c-.37.08-.75.12-1.11.21,1.76-.44.42-.06-.17,0a16.32,16.32,0,0,1-2.21-.07c-.79,0,1.32.24.54.07l-.53-.09c-.37-.08-.73-.17-1.1-.27s-.73-.22-1.09-.35l-.51-.19c-.69-.25,1.2.55.38.16a28,28,0,0,1-4.14-2.48c-.83-.6.61.5.25.2l-.48-.39c-.35-.28-.69-.57-1-.86-.67-.59-1.32-1.21-2-1.84-1.4-1.4-2.71-2.87-4-4.39-.65-.77-1.28-1.57-1.9-2.36s.7.92.13.17l-.46-.6-1-1.38c-1.3-1.75-2.57-3.54-3.82-5.33-5.27-7.51-10.33-15.25-16.52-22-5.6-6.15-12.6-11.7-21.08-12.84a25.24,25.24,0,0,0-3.14-.26l3.18,7.68a131.85,131.85,0,0,0,28.32-42.42A127.28,127.28,0,0,0,686.1,481a4.5,4.5,0,0,0-8.68-2.39Z"/><path class="cls-5" d="M813.15,469.22c-10.34-1.44-21-1.78-31.19,1.08a41.54,41.54,0,0,0-19.83,11.91,43.49,43.49,0,0,0-9.74,19.07,62.83,62.83,0,0,0-1.17,21.31,79.69,79.69,0,0,0,5.09,21,65.68,65.68,0,0,0,10.19,17.74c3.57,4.33,8.13,8.08,13.52,9.84a18.29,18.29,0,0,0,15.69-2.23c6.1-4.07,10.13-10.61,13-17.2a96,96,0,0,0,6.76-22.48c1.75-10.29,2-20.69,2.14-31.1.05-5,.08-10,.25-14.95l-8.84,1.2c3.85,10.24,5.89,21.12,8.56,31.7,1.38,5.51,2.87,11,4.77,16.37A63.13,63.13,0,0,0,829,546.53c3.08,4.61,7,8.41,12.31,10.31a4.54,4.54,0,0,0,5.54-3.14,4.62,4.62,0,0,0-3.14-5.54,4.31,4.31,0,0,0-.6-.22c.4.07,1,.44.3.12-.44-.22-.88-.45-1.3-.7s-.73-.45-1.08-.7c-.17-.11-.89-.65-.24-.16s-.07-.07-.22-.2a22.69,22.69,0,0,1-2.09-2.07c-.31-.35-.61-.72-.9-1.08-.5-.6.56.78.11.14-.18-.26-.38-.52-.57-.79a42.89,42.89,0,0,1-3.37-5.89c-.25-.51-.48-1-.71-1.52l-.34-.78c-.06-.13-.2-.59,0,0s-.07-.17-.1-.26c-.47-1.14-.91-2.29-1.33-3.45-3.79-10.49-6-21.47-8.72-32.27A147.43,147.43,0,0,0,817.73,482a4.57,4.57,0,0,0-4.94-3.23,4.52,4.52,0,0,0-3.9,4.42c-.34,9.92-.09,19.85-.63,29.76-.13,2.43-.31,4.87-.55,7.29-.12,1.15-.25,2.29-.4,3.44-.1.77.1-.6,0,.18,0,.3-.09.61-.14.91q-.15,1.05-.33,2.07a93.21,93.21,0,0,1-3.78,14.9c-.39,1.14-.8,2.27-1.24,3.4l-.58,1.45c-.41,1,.35-.8.06-.14-.12.27-.23.54-.35.82-.81,1.81-1.68,3.6-2.66,5.32a42.36,42.36,0,0,1-2.75,4.26c-.11.16-.24.31-.35.47.23-.34.75-.94.26-.35-.23.29-.47.57-.71.85-.47.55-1,1.08-1.48,1.59s-1,.9-1.46,1.31l-.37.3c-.29.24,1.11-.82.5-.39-.28.19-.55.4-.84.58a15.76,15.76,0,0,1-1.49.88l-.7.34c-.73.36.91-.36.61-.25l-.43.16a11.33,11.33,0,0,1-1.5.47l-.76.17-.38.06c-.74.15,1.18-.11.73-.09-1,0-2,.06-3.07,0-.68,0,1.39.24.72.1l-.33,0-.84-.18c-.51-.12-1-.27-1.5-.43l-.69-.26c-.76-.28.91.4.61.26l-.42-.19c-.49-.22-1-.48-1.46-.75s-1-.58-1.45-.89L778,560l-.36-.26c-.67-.48,1,.76.42.33a35.25,35.25,0,0,1-5.45-5.47c-.29-.35-1.11-1.49,0,0l-.63-.84c-.42-.57-.83-1.15-1.22-1.74a60.54,60.54,0,0,1-4.49-8c-.33-.71-.65-1.43-1-2.15-.15-.36-.43-1.15.17.39-.07-.18-.16-.36-.23-.55l-.45-1.11c-.6-1.54-1.14-3.09-1.64-4.67a75.07,75.07,0,0,1-2.39-9.73c-.15-.82-.28-1.64-.4-2.47,0-.1,0-.21,0-.31-.1-.63.1.82.09.73s0-.41-.08-.62c-.05-.42-.09-.83-.14-1.25-.18-1.68-.3-3.37-.35-5.06s0-3.36,0-5c0-.81.1-1.63.17-2.45l.12-1.22.06-.53c0-.1,0-.2,0-.3.09-.71-.08.64-.09.67a55.8,55.8,0,0,1,2.24-9.39c.13-.38.27-.75.41-1.11s.85-1.9.07-.23c.33-.71.63-1.43,1-2.13a37.23,37.23,0,0,1,2.35-4.06c.21-.32.44-.64.66-1,.12-.16.23-.32.35-.47s.67-.89.09-.13.22-.26.39-.47.54-.64.82-1a34,34,0,0,1,3.51-3.38c.22-.19,1.24-1,.5-.42s-.07,0,.09-.06l.57-.41c.68-.49,1.38-.95,2.1-1.39a47,47,0,0,1,4.73-2.44c.16-.07-1.17.48-.37.16l.64-.26c.46-.18.93-.35,1.39-.51.91-.32,1.82-.6,2.74-.86a50,50,0,0,1,6.07-1.29c.26,0,.53-.07.79-.12,0,0-1.28.16-.59.08l.41-.05,1.64-.17c1.14-.11,2.29-.18,3.43-.23,2.5-.1,5-.07,7.51.07,1.28.07,2.56.17,3.84.29l2.05.22.92.11.52.07c.64.08-1.21-.16-.27,0,2.32.32,5-.56,5.54-3.15.48-2.12-.65-5.19-3.15-5.53Z"/><circle class="cls-6" cx="554" cy="397" r="31.5"/><path class="cls-5" d="M786.57,664.11c-24.16,4.5-48,10.88-70.38,21.24-20,9.28-38.33,21.78-56,34.89-18,13.37-35.51,27.46-54.16,40a258.83,258.83,0,0,1-60.39,30.4,249,249,0,0,1-68.35,13.09,246.35,246.35,0,0,1-34.47-.76c-11.85-1.09-23.35-3.53-34-9-20.24-10.49-38-26.75-52.65-44.1-13.1-15.57-23.08-33.37-34.66-50-11.35-16.32-24.63-32-42.53-41.38a83.05,83.05,0,0,0-77.42.45c-5.12,2.71-.58,10.48,4.54,7.77a75.22,75.22,0,0,1,61.2-3.65c18.55,7,32.55,22,43.88,37.73,11.79,16.39,21.69,34.07,34.17,50a203.21,203.21,0,0,0,50.4,46.06A92.57,92.57,0,0,0,428.22,810a201.36,201.36,0,0,0,35.69,3A256.49,256.49,0,0,0,596,777.19c19.15-11.36,36.82-25,54.52-38.45,17.52-13.33,35.18-26.63,54.39-37.47,20.81-11.74,43.32-19.52,66.56-24.86,5.81-1.34,11.65-2.53,17.51-3.62,5.69-1.06,3.28-9.73-2.39-8.68Z"/></svg>
