<svg id="Layer_1" data-name="Layer 1" xmlns="http://www.w3.org/2000/svg" width="922" height="922" viewBox="0 0 922 922"><defs><style>.cls-1{fill:none;}.cls-2{fill:#c4e8ff;}.cls-3{fill:#7dacc6;}.cls-4{fill:#e9ac4f;}</style></defs><title>usp_haandlavet</title><circle class="cls-1" cx="461" cy="461" r="461"/><path class="cls-2" d="M439.88,453l145.5-286.24a2.36,2.36,0,0,0-3.41-3C527.56,200,464.47,269.89,442.81,308.12c-22.64,40-36.45,66.68-42.63,131.88-12,126.55-53.28,183.83-57.28,230.45-3,34.92,53.29,86.59,93.25,65.28s69.27-81.26,71.94-143.87c1.76-41.54-34.57-77.79-59.24-97.5A33.54,33.54,0,0,1,439.88,453ZM465.46,651.8c-9.38,27.19-30.64,58.62-51.95,58.62-14.72,0-38.64-21.32-38.64-41.3,0-14.89,10.66-44,18.65-62.61,5.94-13.85,17-57.83,22.33-79.55a10.19,10.19,0,0,1,15-6.39c15,8.56,32.72,22.47,40,38C480.11,578.54,478.78,613.17,465.46,651.8Z"/><path class="cls-3" d="M394.06,455.21c-20.55-24-58.09-59.56-99.49-55.83-51.58,4.65-75.33,26.09-94.2,67.26-14.66,32,21.21,98.08,56,93.88,46.46-5.61,67.64-42.2,193.7-58.55,64.95-8.43,91.17-23.15,130.33-47.17,37.45-23,105.13-88.43,139.55-144.06a2.37,2.37,0,0,0-3.16-3.31l-281,155.31A33.53,33.53,0,0,1,394.06,455.21Zm-64.92-19.7c15.76,6.7,30.27,23.89,39.35,38.61a10.2,10.2,0,0,1-5.88,15.2c-21.51,6.05-46,18.86-59.67,25.28-18.36,8.63-31.46,13.41-46.35,13.92-20,.69-31.74-27.19-32.25-41.9-.73-21.3,19.77-48.95,48-54.62C292.48,428,308.85,426.88,329.14,435.51Z"/><circle class="cls-4" cx="417" cy="486" r="16"/></svg>
