<svg id="Layer_1" data-name="Layer 1" xmlns="http://www.w3.org/2000/svg" width="922" height="922" viewBox="0 0 922 922"><defs><style>.cls-1{fill:none;}.cls-2{fill:#7dacc6;}.cls-3{fill:#f8b2b2;}.cls-4{fill:#dd9b9b;}.cls-5{fill:#ffe4e4;}</style></defs><title>usp_lokalt</title><circle class="cls-1" cx="461" cy="461" r="461"/><path class="cls-2" d="M388.83,666.74q-33.06,19.29-66.11,38.6C314.45,710.19,306.17,715,298,720a115.9,115.9,0,0,1-33.38,13.83c-25.83,6.2-55.42,5.1-79.41-6.49a73.13,73.13,0,0,1-7.72-4.23c-.45-.28-.89-.58-1.32-.89-.24-.17-.48-.34-.71-.52l-.41-.3c-.62-.44.87.71.24.18a86.21,86.21,0,0,1-7.13-6.52c-1.4-1.45-2.76-3-4.08-4.5q-1-1.18-2-2.4c-.38-.46-.75-.93-1.11-1.4.63.81-.44-.59-.63-.84a114.76,114.76,0,0,1-8.12-12.58,104.37,104.37,0,0,1-11.7-32.69,106.7,106.7,0,0,1,.84-41.11c2.65-12.08,8.4-22.49,16-32.45,7.51-9.79,17.26-19.42,26.17-28.6,10.11-10.43,20-21.12,28.43-33C221.65,512,229.63,497,236.4,481.77c11.18-25,18.32-51.64,19.89-79.08.45-7.85,1.17-16.14-1-23.81a58.45,58.45,0,0,0-9.12-18.67c-5.23-7.12-11.87-12.86-20.13-16.15-9.69-3.86-20.62-3.2-30.38,0a84.64,84.64,0,0,0-18.58,9.08,4.5,4.5,0,1,0,4.54,7.77,71.61,71.61,0,0,1,18-8.67c1.3-.39,2.62-.73,3.95-1,.57-.13,1.13-.24,1.7-.34l1-.18.62-.09c-.44.06-.5.07-.17,0a40.54,40.54,0,0,1,7.39-.21c.55,0,1.09.11,1.64.15.86.07,0,0-.12,0l.88.14a32.84,32.84,0,0,1,3.24.71c1,.26,1.95.57,2.9.92.24.09,1.91.81.78.3.5.22,1,.44,1.49.69a37.13,37.13,0,0,1,5.24,3.15c.35.25,1.13.87.36.25.41.33.82.66,1.22,1,.75.64,1.49,1.31,2.2,2a52.68,52.68,0,0,1,3.82,4.22c.81,1-.36-.51.4.53.27.36.54.72.79,1.09q.81,1.14,1.56,2.34a53.09,53.09,0,0,1,2.67,4.7c.37.73.72,1.46,1.05,2.21.17.35.31.72.48,1.08.27.56-.43-1.09-.1-.24l.28.7a44.37,44.37,0,0,1,2.36,7.8c.07.32.06,1.31.26,1.54-.43-.48-.1-1.2-.05-.27,0,.24,0,.47.05.71.13,2.48.06,5,0,7.45q-.13,8.64-1,17.24c-.59,6.14-1.33,11.26-2.54,17.56a221.86,221.86,0,0,1-11.73,39.9,276.17,276.17,0,0,1-22.47,44.08c-7.69,12.35-17.18,23.36-27.17,33.89-17.88,18.84-38.64,37-47.59,62.13a95,95,0,0,0-4.49,21,111.7,111.7,0,0,0-.44,21.4,115.53,115.53,0,0,0,9.41,37.39,116.75,116.75,0,0,0,16.27,26.59,80.49,80.49,0,0,0,15.6,15.14A70.83,70.83,0,0,0,185,737a111.06,111.06,0,0,0,20.12,6.4,137.05,137.05,0,0,0,42.47,2.29,134.84,134.84,0,0,0,41.17-10.62c8.64-3.82,16.6-9.06,24.72-13.85Q346,702,378.73,683.05l14.64-8.54c5-2.91.48-10.69-4.54-7.77Z"/><path class="cls-2" d="M275.26,354a1,1,0,0,1-.55.24c-4.12.29-44.34,5.29-57.87,26.93-14.18,22.7-11.35,39.73-2.83,48.24s36.88,5.67,53.91-17c16.21-21.62,20.45-40.76,21.22-43.76a.86.86,0,0,1,.24-.41L576,84.65a1,1,0,0,0-1.33-1.39Zm-21.53,55.55c-8.51,11.35-25.54,17-31.21,11.35-8.51-8.51-5.68-22.7,2.84-34.05,7.22-9.63,32.53-27.06,42.56-17C279.27,381.16,262.24,398.19,253.73,409.54Z"/><path class="cls-3" d="M518,245.49S260.88,444.92,268.1,468.94s74.48,28.82,74.48,28.82-2,14.28-4.4,35.35H541V268.68C526.83,254.34,518,245.49,518,245.49Z"/><path class="cls-4" d="M340.58,703.51C359.47,716.57,460.34,724,541,723.64V533.11H338.18C331.86,588.63,322.83,691.23,340.58,703.51Z"/><path class="cls-5" d="M541,268.68v321.5H659.43c-1.14-42.93-4.5-80.4-4.5-80.4S727,505,736.61,490.56C745.25,477.61,598.88,327.28,541,268.68Z"/><path class="cls-4" d="M541,723.64c49.26-.2,91-3.26,101.91-9.63,16-9.3,17.93-70.75,16.52-123.83H541Z"/></svg>
