<svg id="Layer_1" data-name="Layer 1" xmlns="http://www.w3.org/2000/svg" width="922" height="922" viewBox="0 0 922 922"><defs><style>.cls-1,.cls-4,.cls-5,.cls-6,.cls-7{fill:none;}.cls-2{fill:#93d19d;}.cls-3{fill:#c3fccf;}.cls-4,.cls-5{stroke:#c3fccf;}.cls-4,.cls-5,.cls-6,.cls-7{stroke-miterlimit:10;stroke-width:20px;}.cls-5{stroke-dasharray:36.79 36.79;}.cls-6,.cls-7{stroke:#93d19d;}.cls-7{stroke-dasharray:37 37;}.cls-8{fill:#7dacc6;}</style></defs><title>usp_holdbart</title><circle class="cls-1" cx="461" cy="461" r="461"/><path class="cls-2" d="M706.61,617.43s-1.17-8.91-2.52-25.45c-.57-7.05-1.18-15.49-1.75-25.22-4.06-69.77-6-206,22-372.91a376.12,376.12,0,0,0-68.06-53.19c-38.8,189.93-48.64,359.27-51.43,431.62-.43,11.05-.69,19.83-.86,26.09-.22,7.29-.31,11.14-.41,11.14-30.93-2.8-67.94-1.63-105.87,1.69l-.18,0c-109.92,9.57-227.52,37-227.52,37-10.81,20.3-24,58.54-37.38,109.49A373.15,373.15,0,0,0,461.25,835.5c149.22,0,278.09-87.24,338.37-213.5C744.45,619.17,706.61,617.43,706.61,617.43Z"/><path class="cls-3" d="M702.34,566.76c-32.4,1.35-64.82,3.18-97.53,5.52-7,.47-14,1-21.09,1.54C429.1,585.71,262,636.3,262,636.3c-11.09,20.84-24.48,61-37.93,114.64,2.79,2.28,5.63,4.53,8.48,6.74A373.15,373.15,0,0,0,461.25,835.5c149.22,0,278.09-87.24,338.37-213.5a371.43,371.43,0,0,0,21.9-57.74C781.72,564.28,742.1,565.12,702.34,566.76Z"/><path class="cls-4" d="M627.32,546.07s.27-7.22.91-20"/><path class="cls-5" d="M630.27,489.36c4-65.47,12.74-176.68,29.6-274.24"/><path class="cls-4" d="M663.13,197q1.86-9.93,3.84-19.6"/><path class="cls-6" d="M284.4,655.09s6.78-2,19.31-5.21"/><path class="cls-7" d="M339.64,641.08c81.6-19,244-50.49,421.63-50"/><path class="cls-6" d="M779.78,591.22q10,.15,20,.44"/><path class="cls-8" d="M215.57,590.15a424.55,424.55,0,0,1-69.45-50.68q-9.12-8.21-17.76-16.93l-3.18,7.69,95.95-9.72c3.08-.31,6-3.69,3.89-6.77A687.3,687.3,0,0,1,164,406q-7.16-15.8-13.47-31.94L145,379.63q53.92,7.33,108.29,10.83,15.53,1,31.09,1.64c3,.13,5-3,4.34-5.69-8.46-36.44-17-73.5-15.89-111.16A186.75,186.75,0,0,1,276.31,244l-6.61,2.68q37.8,19.74,73.5,43.15,10.11,6.65,20,13.56c2.38,1.66,5.93-.05,6.61-2.69l13.6-53.1c2.07-8.08,3.95-16.24,6.39-24.22,2.14-7,4.91-14.09,9.59-19.86l-5.45.71a211.72,211.72,0,0,1,67.14,71.92,205.87,205.87,0,0,1,12.15,25.11c1.14,2.86,5.08,4.82,7.52,2l70.65-81.79-7.06-.91L572,279.23c1,2.2,4.2,2.77,6.16,1.62a4.6,4.6,0,0,0,1.61-6.16L552.14,216c-1.19-2.52-5.28-3-7.07-.91l-70.65,81.78,7.52,2a221.36,221.36,0,0,0-59.67-84.35,224.23,224.23,0,0,0-23.76-18.07,4.52,4.52,0,0,0-5.45.71c-10.68,13.14-13.76,30.33-17.86,46.32l-14,54.82,6.61-2.69q-35-24.37-72.25-45.21-10.56-5.9-21.27-11.49c-2.41-1.25-6-.29-6.61,2.69-7.68,38.19-2.67,77.17,5.17,114.9,2.24,10.81,4.72,21.57,7.22,32.33l4.34-5.7q-53.77-2.3-107.29-8.43Q162.21,373,147.38,371c-3-.41-6.95,1.93-5.54,5.53a694.19,694.19,0,0,0,56,112.17q9.33,15.06,19.41,29.62l3.89-6.77-95.95,9.72c-3.73.37-6.13,4.71-3.18,7.68a436.57,436.57,0,0,0,67.87,55.81q10.38,6.91,21.15,13.2c5,2.94,9.55-4.84,4.55-7.77Z"/><path class="cls-1" d="M836,460.75A372.84,372.84,0,0,1,799.62,622C739.34,748.26,610.47,835.5,461.25,835.5a373.15,373.15,0,0,1-228.66-77.82c-2.85-2.21-5.69-4.46-8.48-6.74C140.11,682.21,86.5,577.73,86.5,460.75,86.5,253.79,254.29,86,461.25,86A374.77,374.77,0,0,1,836,460.75Z"/></svg>
