<svg id="Layer_1" data-name="Layer 1" xmlns="http://www.w3.org/2000/svg" width="922" height="922" viewBox="0 0 922 922"><defs><style>.cls-1{fill:#93d19d;}.cls-2{fill:none;}.cls-3{fill:#7dacc6;}.cls-4{fill:#c3fccf;}.cls-5{opacity:0.15;}</style></defs><title>usp_holdbart2</title><path class="cls-1" d="M360.39,654.68C337.87,682,407,744.17,430.23,719c5.67-6.13,12.43-16.52,25.29-31.32,11.22-12.91-1.29-36-16.28-49.78s-40.05-28.46-54.65-12C374.21,637.61,371.49,641.24,360.39,654.68Z"/><circle class="cls-2" cx="461" cy="461" r="461"/><path class="cls-3" d="M256.67,535.29a384.39,384.39,0,0,1-62.92-45.91q-8.26-7.44-16.11-15.35l-3.18,7.68,87-8.81c3.07-.31,6-3.69,3.88-6.77A624.65,624.65,0,0,1,210,368.42q-6.47-14.28-12.17-28.87l-5.54,5.53q49,6.66,98.35,9.84,14.08.88,28.2,1.49c3,.13,5-3,4.34-5.7-7.66-33-15.41-66.6-14.39-100.72A169,169,0,0,1,312,221.71l-6.61,2.69q34.27,17.91,66.68,39.15,9.16,6,18.16,12.29c2.39,1.66,5.93,0,6.61-2.69L409.15,225c1.88-7.33,3.59-14.74,5.8-22,1.92-6.31,4.39-12.66,8.59-17.83l-5.45.71A191.56,191.56,0,0,1,478.85,251a186.66,186.66,0,0,1,11,22.69c1.14,2.85,5.08,4.81,7.52,2l64.09-74.19-7.06-.91,25.06,53.26c1,2.2,4.19,2.76,6.16,1.61a4.6,4.6,0,0,0,1.61-6.16L562.15,196c-1.19-2.53-5.28-3-7.07-.92L491,269.29l7.53,2a201.14,201.14,0,0,0-54.24-76.7,203.52,203.52,0,0,0-21.64-16.46,4.52,4.52,0,0,0-5.45.71c-9.74,12-12.57,27.62-16.31,42.21l-12.74,49.73,6.61-2.69Q363,246,329.2,227.05q-9.57-5.34-19.3-10.42c-2.4-1.25-6-.3-6.61,2.69-7,34.72-2.43,70.15,4.69,104.45,2,9.81,4.29,19.58,6.55,29.33l4.34-5.69q-48.78-2.09-97.33-7.65-13.42-1.54-26.83-3.36a4.76,4.76,0,0,0-4.37,1.16,4.41,4.41,0,0,0-1.16,4.38A631,631,0,0,0,240,443.8q8.46,13.65,17.61,26.87l3.89-6.77-87,8.81c-3.73.38-6.12,4.71-3.18,7.68a396,396,0,0,0,61.66,50.7q9.42,6.27,19.19,12c5,2.94,9.54-4.84,4.54-7.77Z"/><path class="cls-4" d="M339.4,576.34C335.47,627.48,402.27,732.8,512.67,736c62.6,1.82,284.86-257.64,284.86-317.51,0-33.31-15.25-69.53-52.64-103.54-28.1-25.56-69.11-55.8-123.35-49.77C572.55,270.62,345.76,493.79,339.4,576.34Z"/><path class="cls-1" d="M650.57,399.44c44.45,39.92,147,78.92,147,19.05,0-33.31-15.25-69.53-52.64-103.54-28.1-25.56-69.11-55.8-123.35-49.77C572.55,270.62,601.8,355.65,650.57,399.44Z"/><path class="cls-4" d="M516.56,437.11c1.35,22.59,11.17,43.25,22.44,62.48,10.44,17.82,22.17,35.69,39.4,47.64,15.54,10.77,36.91,15.4,54.82,8,18.59-7.72,28.09-27.15,28.66-46.53.66-22.15-9.66-43.41-19.93-62.43A277.5,277.5,0,0,0,608.25,397c-26.39-30.66-61-54.59-100.86-63.51s-82.45-2.76-115.43,22c-30.46,22.89-50.07,56.9-62.79,92.26-14.88,41.36-19.68,85.37-28,128.3-4.39,22.63-9.73,45.21-18,66.79-3.34,8.73-7.5,17.62-14.17,24.33-7.23,7.27-17,10.33-27.08,10.71-36.91,1.4-68.66-24.51-86.61-54.82-22.35-37.72-23.92-83.33-21.75-126,.57-11.4,1.44-22.79,2.32-34.17.44-5.78-8.56-5.75-9,0-3.49,45.17-6.92,92.16,7.57,135.9C145.66,632.55,169.8,664.52,203,679c17,7.39,38,11.21,55.86,4.87,20.17-7.15,29-26.89,35.53-45.69,15-43.1,19.74-88.76,28.73-133.28,7.62-37.67,19-75.15,41-107.13,10.11-14.71,22.6-28.05,37.41-38.12a121.82,121.82,0,0,1,53.55-20.13c40.1-4.92,80.32,7.9,112.54,31.63,31.28,23,54.89,55.46,71.94,90.05,9.09,18.45,17.2,39.63,11.37,60.32-2.34,8.33-6.95,16.32-14,21.47-7.27,5.26-16.19,7.2-25,6.76-19.76-1-35.73-13.56-47.66-28.43-6.28-7.82-11.58-16.42-16.68-25-5.5-9.32-10.76-18.87-14.74-28.95a98.41,98.41,0,0,1-7.18-30.2c-.34-5.76-9.34-5.8-9,0Z"/><path class="cls-4" d="M680.29,304.93c-22.52,27.27,46.57,89.49,69.84,64.35,5.67-6.13,12.43-16.52,25.29-31.32,11.22-12.91-1.29-36-16.28-49.78s-40-28.46-54.65-12C694.11,287.86,691.39,291.49,680.29,304.93Z"/><path class="cls-5" d="M770.91,335.39c10.23-11.77-1.18-32.8-14.84-45.38s-36.51-25.95-49.82-10.95c-4.73,5.33,4.37,28.57,20.25,43S765.05,342.14,770.91,335.39Z"/></svg>
